<?xml version="1.0" encoding="UTF-8" standalone="no"?> <svg width="64" height="64" viewBox="0 0 64 64" fill="none" xmlns="http://www.w3.org/2000/svg">
<path d="M3 28V42C3 46.418 15.984 50 32 50C48.016 50 61 46.418 61 42V28L32 22L3 28Z" fill="#FCBC04"/>
<path d="M18 43V29L3 28V42C3 46.418 15.984 50 32 50C32.308 50 32.613 50 32.919 49.994C24.022 48.627 18 46.008 18 43Z" fill="#E59730"/>
<path d="M32 27L55 32.871C58.761 31.522 61 29.834 61 28C61 23.582 48.016 20 32 20C15.984 20 3 23.582 3 28C3 32.418 15.984 36 32 36C34.8 36 37.5 35.888 40.064 35.684L32 27Z" fill="#F9E109"/>
<path d="M54.415 32.723L32 27L40.064 35.684H40V49.684C45.0987 49.3823 50.1387 48.4367 55 46.87V33L54.415 32.723Z" fill="#E59730"/>
<path d="M42 38C43.1046 38 44 37.1046 44 36C44 34.8954 43.1046 34 42 34C40.8954 34 40 34.8954 40 36C40 37.1046 40.8954 38 42 38Z" fill="#B27525"/>
<path d="M49 44C50.1046 44 51 43.1046 51 42C51 40.8954 50.1046 40 49 40C47.8954 40 47 40.8954 47 42C47 43.1046 47.8954 44 49 44Z" fill="#B27525"/>
<path d="M31.969 45.826C31.658 45.9376 31.3304 45.9964 31 46C30.3219 46.0021 29.6632 45.7738 29.1319 45.3525C28.6006 44.9313 28.2281 44.342 28.0755 43.6813C27.9229 43.0206 27.9993 42.3277 28.292 41.7161C28.5848 41.1045 29.0767 40.6105 29.687 40.315L27.576 35.215C27.3691 35.4856 27.0964 35.6988 26.784 35.8345C26.4715 35.9702 26.1296 36.0238 25.7906 35.9902C25.4516 35.9567 25.1268 35.8372 24.8469 35.6429C24.5671 35.4487 24.3415 35.1862 24.1916 34.8803C24.0416 34.5744 23.9723 34.2353 23.9901 33.8951C24.008 33.5549 24.1124 33.225 24.2936 32.9365C24.4747 32.648 24.7266 32.4105 25.0252 32.2466C25.3238 32.0827 25.6594 31.9979 26 32C26.0848 32.0031 26.1693 32.0117 26.253 32.026L25 29H19V43.485L13.686 56.314C15.2024 57.8335 17.0098 59.0313 19 59.836V61H25C27.1016 61.0028 29.183 60.5903 31.1246 59.7861C33.0663 58.9819 34.8299 57.8019 36.314 56.314L31.969 45.826Z" fill="#F9E109"/>
<path d="M13.687 56.314C15.2026 57.834 17.0098 59.0319 19 59.836V61H25C27.1014 61.0028 29.1827 60.5902 31.1242 59.786C33.0656 58.9819 34.829 57.8019 36.313 56.314H13.687Z" fill="#E59730"/>
<path d="M19 29L13.93 41.24C14.3261 41.4466 14.6413 41.7803 14.8249 42.1875C15.0086 42.5948 15.0502 43.0519 14.9429 43.4855C14.8356 43.9192 14.5858 44.3043 14.2335 44.5789C13.8811 44.8535 13.4467 45.0018 13 45C12.8004 44.9966 12.6025 44.9629 12.413 44.9L7.686 56.314C9.17175 57.7998 10.9356 58.9785 12.8769 59.7826C14.8181 60.5867 16.8988 61.0006 19 61.0006C21.1012 61.0006 23.1819 60.5867 25.1231 59.7826C27.0644 58.9785 28.8283 57.7998 30.314 56.314L19 29Z" fill="#FCBC04"/>
<path d="M22 57C23.1046 57 24 56.1046 24 55C24 53.8954 23.1046 53 22 53C20.8954 53 20 53.8954 20 55C20 56.1046 20.8954 57 22 57Z" fill="#E59730"/>
<path d="M14 56C15.1046 56 16 55.1046 16 54C16 52.8954 15.1046 52 14 52C12.8954 52 12 52.8954 12 54C12 55.1046 12.8954 56 14 56Z" fill="#E59730"/>
<path d="M20 49C21.1046 49 22 48.1046 22 47C22 45.8954 21.1046 45 20 45C18.8954 45 18 45.8954 18 47C18 48.1046 18.8954 49 20 49Z" fill="#E59730"/>
<path d="M19 41C19.5523 41 20 40.5523 20 40C20 39.4477 19.5523 39 19 39C18.4477 39 18 39.4477 18 40C18 40.5523 18.4477 41 19 41Z" fill="#E59730"/>
<path d="M30 51C30.5523 51 31 50.5523 31 50C31 49.4477 30.5523 49 30 49C29.4477 49 29 49.4477 29 50C29 50.5523 29.4477 51 30 51Z" fill="#E59730"/>
<path d="M49 37C49.5523 37 50 36.5523 50 36C50 35.4477 49.5523 35 49 35C48.4477 35 48 35.4477 48 36C48 36.5523 48.4477 37 49 37Z" fill="#B27525"/>
<path d="M44 46C44.5523 46 45 45.5523 45 45C45 44.4477 44.5523 44 44 44C43.4477 44 43 44.4477 43 45C43 45.5523 43.4477 46 44 46Z" fill="#B27525"/>
</svg>
