<?xml version="1.0" encoding="UTF-8" standalone="no"?> <svg xmlns="http://www.w3.org/2000/svg" viewBox="0 0 32 32"><defs><style>.cls-1{fill:#ff704c;}.cls-2{fill:#e55f45;}.cls-3{fill:#a96555;}.cls-4{fill:#8e5449;}.cls-5{fill:#683b32;}.cls-6{fill:#844c3e;}.cls-7{fill:#ffa97d;}.cls-8{fill:#e59673;}</style></defs><title>chocolate 7</title><g id="chocolate_7" data-name="chocolate 7"><path class="cls-1" d="M26.12,20l-8-1a1.07,1.07,0,0,0-.47,0L16,19.68l-5.94,2.23-3.61-1.8A1,1,0,0,0,5,21v8a1,1,0,0,0,1,1H26a1,1,0,0,0,1-1V21A1,1,0,0,0,26.12,20Z"/><path class="cls-2" d="M26.12,20l-8-1a1.07,1.07,0,0,0-.47,0L16,19.68V30H26a1,1,0,0,0,1-1V21A1,1,0,0,0,26.12,20Z"/><path class="cls-3" d="M26,2H6A1,1,0,0,0,5,3V16a1,1,0,0,0,1,1H26a1,1,0,0,0,1-1V3A1,1,0,0,0,26,2Z"/><path class="cls-4" d="M26,2H16V17H26a1,1,0,0,0,1-1V3A1,1,0,0,0,26,2Z"/><path class="cls-5" d="M26,2H16V17H26a1,1,0,0,0,1-1V3A1,1,0,0,0,26,2ZM25,15H17V12h8Zm0-5H17V4h8Z"/><path class="cls-6" d="M6,2A1,1,0,0,0,5,3V16a1,1,0,0,0,1,1H16V2Zm9,13H7V12h8ZM7,10V4h8v6Z"/><path class="cls-7" d="M28,15H4a1,1,0,0,0-1,1v5a1,1,0,0,0,.68.95l6,2A1.19,1.19,0,0,0,10,24a1,1,0,0,0,.35-.06L16,21.82,18.08,21,27.8,23a1,1,0,0,0,.83-.21A1,1,0,0,0,29,22V16A1,1,0,0,0,28,15Z"/><path class="cls-8" d="M28,15H16v6.82L18.08,21,27.8,23a1,1,0,0,0,.83-.21A1,1,0,0,0,29,22V16A1,1,0,0,0,28,15Z"/></g></svg>