<?xml version="1.0" encoding="iso-8859-1"?>
<!-- Generator: Adobe Illustrator 16.0.0, SVG Export Plug-In . SVG Version: 6.00 Build 0)  -->
<!DOCTYPE svg PUBLIC "-//W3C//DTD SVG 1.1//EN" "http://www.w3.org/Graphics/SVG/1.1/DTD/svg11.dtd">
<svg version="1.1" xmlns="http://www.w3.org/2000/svg" xmlns:xlink="http://www.w3.org/1999/xlink" x="0px" y="0px" width="520px"
	 height="520px" viewBox="0 0 520 520" style="enable-background:new 0 0 520 520;" xml:space="preserve">
<g id="_x32_19_x2C__Candy_x2C__Cookie_x2C__Dessert_x2C__Food_x2C__Sweet">
	<g>
		<g>
			<path style="fill:#D7DEED;" d="M77.5,40c8.279,0,15,6.72,15,15s-6.721,15-15,15c-8.29,0-15-6.72-15-15S69.21,40,77.5,40z"/>
			<path style="fill:#D7DEED;" d="M52.5,420c8.279,0,15,6.719,15,15c0,8.279-6.721,15-15,15c-8.29,0-15-6.721-15-15
				C37.5,426.719,44.21,420,52.5,420z"/>
			<path style="fill:#D7DEED;" d="M462.5,340c11.039,0,20,8.949,20,20c0,11.049-8.961,20-20,20c-11.051,0-20-8.951-20-20
				C442.5,348.949,451.449,340,462.5,340z"/>
			<path style="fill:#8E725D;" d="M287,307.92L277.8,490h-50.6L218,307.92l2.22-0.34c9.2,6.26,20.31,9.92,32.28,9.92
				c11.97,0,23.079-3.66,32.279-9.92L287,307.92z"/>
			<path style="fill:#A28671;" d="M290.829,302.85c10.171,9.109,23.601,14.65,38.33,14.65c14.73,0,28.16-5.541,38.341-14.65
				c10.17,9.109,23.6,14.65,38.329,14.65c4.891,0,9.641-0.611,14.171-1.76l-30.471,129.479c-6.17,26.24-29.58,44.781-56.54,44.781
				h-4.59h-50.6l9.2-182.08l-2.221-0.34C286.899,306.139,288.92,304.559,290.829,302.85z"/>
			<path style="fill:#A28671;" d="M137.5,302.85c10.17,9.109,23.6,14.65,38.33,14.65c14.729,0,28.16-5.541,38.33-14.65
				c1.909,1.709,3.93,3.289,6.06,4.73l-2.22,0.34L227.2,490H172c-26.95,0-50.37-18.541-56.54-44.781L84.99,315.74
				c4.529,1.148,9.279,1.76,14.17,1.76C113.89,317.5,127.319,311.959,137.5,302.85z"/>
			<path style="fill:#FEBE76;" d="M413.149,202.959L425,202.5C425,107.229,347.77,30,252.5,30C157.229,30,80,107.229,80,202.5
				l0.72,3.02c-22.71,7.69-39.06,29.17-39.06,54.48c0,26.869,18.43,49.43,43.33,55.74c4.529,1.148,9.279,1.76,14.17,1.76
				c14.729,0,28.159-5.541,38.34-14.65c10.17,9.109,23.6,14.65,38.33,14.65c14.729,0,28.16-5.541,38.33-14.65
				c1.909,1.709,3.93,3.289,6.06,4.73c9.2,6.26,20.31,9.92,32.28,9.92c11.97,0,23.079-3.66,32.279-9.92
				c2.12-1.441,4.141-3.021,6.05-4.73c10.171,9.109,23.601,14.65,38.33,14.65c14.73,0,28.16-5.541,38.341-14.65
				c10.17,9.109,23.6,14.65,38.329,14.65c4.891,0,9.641-0.611,14.171-1.76c24.909-6.311,43.329-28.871,43.329-55.74
				C463.329,230.72,441.449,206.56,413.149,202.959z"/>
			<path d="M472.449,109.009c0.03,0.34,0.051,0.67,0.051,1.01c0,5.07-3.851,9.41-9.011,9.93c-0.34,0.03-0.67,0.05-1.01,0.05
				c-5.07,0-9.41-3.85-9.93-9c-0.03-0.34-0.05-0.68-0.05-1.01c0-5.08,3.85-9.42,9-9.94C467,99.5,471.899,103.509,472.449,109.009z"
				/>
			<path d="M442.399,58.009c0.03,0.34,0.05,0.68,0.05,1.01c0,5.08-3.85,9.42-9.01,9.94c-0.33,0.03-0.66,0.05-0.99,0.05
				c-5.08,0-9.43-3.84-9.949-9.01c-0.03-0.34-0.051-0.68-0.051-1.01c0-5.08,3.851-9.42,9-9.94
				C436.949,48.5,441.85,52.509,442.399,58.009z"/>
			<path d="M372.449,139.009c0.03,0.34,0.051,0.67,0.051,1.01c0,5.07-3.851,9.41-9.011,9.93c-0.34,0.03-0.67,0.05-1.01,0.05
				c-5.07,0-9.41-3.85-9.93-9c-0.03-0.34-0.05-0.68-0.05-1.01c0-5.08,3.85-9.42,9-9.94C367,129.5,371.899,133.509,372.449,139.009z"
				/>
			<path d="M352.439,189c0.03,0.34,0.05,0.68,0.05,1.01c0,5.08-3.85,9.42-9,9.94c-0.34,0.03-0.68,0.05-1.01,0.05
				c-5.08,0-9.42-3.85-9.94-9.01c-0.029-0.34-0.05-0.67-0.05-1.01c0-5.07,3.851-9.41,9.011-9.93
				C347,179.5,351.899,183.509,352.439,189z"/>
			<path d="M302.439,89c0.03,0.34,0.05,0.68,0.05,1.01c0,5.08-3.85,9.42-9,9.94c-0.34,0.03-0.68,0.05-1.01,0.05
				c-5.08,0-9.42-3.85-9.94-9.01c-0.029-0.34-0.05-0.67-0.05-1.01c0-5.07,3.851-9.41,9.011-9.93C297,79.5,301.899,83.509,302.439,89
				z"/>
			<path d="M302.439,139.009c0.03,0.34,0.05,0.67,0.05,1.01c0,5.07-3.85,9.41-9,9.93c-0.34,0.03-0.68,0.05-1.01,0.05
				c-5.08,0-9.42-3.85-9.94-9c-0.029-0.34-0.05-0.68-0.05-1.01c0-5.08,3.851-9.42,9.011-9.94
				C297,129.5,301.899,133.509,302.439,139.009z"/>
			<path d="M272.449,189.009c0.03,0.34,0.051,0.67,0.051,1.01c0,5.07-3.851,9.41-9.011,9.93c-0.34,0.03-0.67,0.05-1.01,0.05
				c-5.07,0-9.41-3.85-9.93-9c-0.03-0.34-0.05-0.68-0.05-1.01c0-5.08,3.85-9.42,9-9.94C267,179.5,271.899,183.509,272.449,189.009z"
				/>
			<path d="M242.5,80c0.029,0.33,0.05,0.67,0.05,0.99c0,5.09-3.84,9.44-9.01,9.96c-0.34,0.03-0.681,0.05-1.011,0.05
				c-5.079,0-9.42-3.85-9.939-9.01c-0.03-0.33-0.05-0.67-0.05-0.99c0-5.09,3.84-9.44,9.01-9.96C237.05,70.5,241.95,74.5,242.5,80z"
				/>
			<path d="M242.45,149c0.029,0.33,0.05,0.67,0.05,0.99c0,5.09-3.84,9.44-9.01,9.96c-0.341,0.03-0.681,0.05-1.011,0.05
				c-5.08,0-9.42-3.85-9.939-9.01c-0.03-0.33-0.05-0.66-0.05-0.99c0-5.08,3.84-9.43,9.01-9.95C237,139.5,241.899,143.509,242.45,149
				z"/>
			<path d="M202.45,199.009c0.029,0.34,0.05,0.67,0.05,1.01c0,5.07-3.851,9.41-9.01,9.93c-0.341,0.03-0.671,0.05-1.011,0.05
				c-5.069,0-9.41-3.85-9.93-9c-0.03-0.34-0.05-0.68-0.05-1.01c0-5.08,3.85-9.42,9-9.94C197,189.5,201.899,193.509,202.45,199.009z"
				/>
			<path d="M192.45,109.009c0.029,0.33,0.05,0.66,0.05,0.99c0,5.08-3.84,9.43-9.01,9.95c-0.341,0.03-0.681,0.05-1.011,0.05
				c-5.08,0-9.42-3.85-9.939-9c-0.03-0.33-0.05-0.67-0.05-0.99c0-5.09,3.84-9.44,9.01-9.96C187,99.5,191.899,103.509,192.45,109.009
				z"/>
			<path d="M152.45,169.009c0.029,0.33,0.05,0.66,0.05,0.99c0,5.08-3.84,9.43-9.01,9.95c-0.341,0.03-0.681,0.05-1.011,0.05
				c-5.08,0-9.42-3.85-9.939-9c-0.03-0.33-0.05-0.67-0.05-0.99c0-5.09,3.84-9.44,9.01-9.96
				C147,159.5,151.899,163.509,152.45,169.009z"/>
			<path d="M62.45,359c0.029,0.33,0.05,0.67,0.05,0.99c0,5.09-3.84,9.439-9.01,9.959C53.149,369.98,52.81,370,52.479,370
				c-5.08,0-9.42-3.85-9.939-9.01c-0.03-0.33-0.05-0.66-0.05-0.99c0-5.08,3.84-9.43,9.01-9.951C57,349.5,61.899,353.51,62.45,359z"
				/>
			<path d="M52.5,120c0.029,0.34,0.05,0.68,0.05,1.01c0,5.08-3.85,9.42-9.01,9.94c-0.34,0.03-0.681,0.05-1.011,0.05
				c-5.079,0-9.42-3.85-9.939-9.01c-0.03-0.33-0.05-0.67-0.05-0.99c0-5.09,3.84-9.44,9.01-9.96C47.05,110.5,51.95,114.5,52.5,120z"
				/>
			<path d="M328.412,500c-0.466,0-0.936-0.031-1.41-0.098c-5.469-0.773-9.276-5.832-8.505-11.301l12.98-92
				c0.772-5.469,5.831-9.268,11.3-8.504c5.469,0.771,9.276,5.83,8.505,11.299l-12.98,92C337.597,496.391,333.315,500,328.412,500z"
				/>
			<path d="M163.604,408.002c-4.337,0-8.331-2.844-9.6-7.219l-26.109-90.08c-1.538-5.305,1.516-10.852,6.82-12.389
				c5.302-1.535,10.851,1.516,12.389,6.82l26.109,90.08c1.538,5.305-1.516,10.852-6.82,12.389
				C165.464,407.873,164.526,408.002,163.604,408.002z"/>
			<path d="M277.808,500c-0.17,0-0.341-0.004-0.513-0.014c-5.516-0.277-9.761-4.977-9.482-10.492l9.2-182.08
				c0.279-5.516,4.991-9.777,10.492-9.482c5.516,0.279,9.761,4.977,9.482,10.492l-9.2,182.08
				C287.517,495.848,283.099,500,277.808,500z"/>
			<path d="M227.191,500c-5.291,0-9.709-4.152-9.979-9.496l-9.2-182.08c-0.279-5.516,3.967-10.213,9.482-10.492
				c5.524-0.289,10.213,3.967,10.492,9.482l9.2,182.08c0.278,5.516-3.967,10.215-9.482,10.492
				C227.533,499.996,227.361,500,227.191,500z"/>
			<path d="M425,212.5c-5.522,0-10-4.477-10-10C415,112.896,342.103,40,252.5,40S90,112.896,90,202.5c0,5.523-4.478,10-10,10
				c-5.523,0-10-4.477-10-10C70,101.869,151.869,20,252.5,20S435,101.869,435,202.5C435,208.022,430.522,212.5,425,212.5z"/>
			<path d="M332.989,500c-5.522,0-10-4.479-10-10c0-5.523,4.478-10,10-10c22.427,0,41.674-15.244,46.806-37.07l30.471-129.48
				c1.266-5.377,6.651-8.703,12.025-7.443c5.376,1.266,8.708,6.648,7.443,12.025L399.264,447.51
				C391.997,478.414,364.744,500,332.989,500z"/>
			<path d="M172,500c-31.755,0-59.008-21.586-66.274-52.492l-30.47-129.477c-1.265-5.377,2.067-10.76,7.443-12.025
				c5.38-1.264,10.76,2.068,12.024,7.443l30.47,129.479C130.326,464.756,149.573,480,172,480c5.522,0,10,4.477,10,10
				C182,495.521,177.522,500,172,500z"/>
			<path d="M52.5,460c-13.785,0-25-11.215-25-25s11.215-25,25-25s25,11.215,25,25S66.285,460,52.5,460z M52.5,430
				c-2.757,0-5,2.242-5,5c0,2.756,2.243,5,5,5s5-2.244,5-5C57.5,432.242,55.257,430,52.5,430z"/>
			<path d="M77.5,80c-13.785,0-25-11.215-25-25s11.215-25,25-25s25,11.215,25,25S91.285,80,77.5,80z M77.5,50c-2.757,0-5,2.243-5,5
				s2.243,5,5,5s5-2.243,5-5S80.257,50,77.5,50z"/>
			<path d="M462.5,390c-16.542,0-30-13.459-30-30c0-16.543,13.458-30,30-30s30,13.457,30,30C492.5,376.541,479.042,390,462.5,390z
				 M462.5,350c-5.514,0-10,4.486-10,10s4.486,10,10,10s10-4.486,10-10S468.014,350,462.5,350z"/>
			<path d="M405.829,327.5c-13.785,0-27.12-4.195-38.332-11.943c-11.218,7.748-24.556,11.943-38.338,11.943
				c-13.784,0-27.12-4.195-38.331-11.943c-0.143,0.1-0.286,0.197-0.429,0.295c-11.198,7.619-24.306,11.648-37.899,11.648
				c-13.595,0-26.702-4.029-37.905-11.652c-0.144-0.098-0.286-0.195-0.43-0.293c-11.211,7.75-24.548,11.945-38.335,11.945
				c-13.786,0-27.121-4.195-38.333-11.943c-11.218,7.748-24.556,11.943-38.337,11.943c-5.63,0-11.225-0.695-16.63-2.068
				c-29.95-7.59-50.87-34.496-50.87-65.432c0-28.965,18.427-54.666,45.853-63.952c6.956-2.354,14.238-3.548,21.647-3.548
				c5.522,0,10,4.477,10,10s-4.478,10-10,10c-5.224,0-10.349,0.838-15.233,2.492C64.627,221.526,51.66,239.614,51.66,260
				c0,21.771,14.716,40.707,35.786,46.047c3.802,0.965,7.742,1.453,11.714,1.453c11.702,0,22.95-4.299,31.671-12.104
				c3.798-3.396,9.545-3.396,13.341,0.004c8.71,7.803,19.953,12.1,31.658,12.1s22.948-4.297,31.657-12.1
				c3.798-3.4,9.546-3.402,13.344-0.002c1.579,1.416,3.258,2.727,4.99,3.896c7.896,5.373,17.113,8.205,26.679,8.205
				c9.564,0,18.781-2.832,26.654-8.188c1.749-1.189,3.431-2.504,5.003-3.912c3.797-3.4,9.547-3.4,13.344,0
				c8.711,7.803,19.954,12.1,31.658,12.1c11.703,0,22.951-4.299,31.672-12.104c3.798-3.398,9.544-3.396,13.342,0.004
				c8.709,7.803,19.951,12.1,31.656,12.1c3.972,0,7.912-0.488,11.712-1.453c21.073-5.338,35.788-24.273,35.788-46.047
				c0-23.858-17.816-44.115-41.441-47.121c-2.005-0.251-4.049-0.38-6.059-0.38c-5.522,0-10-4.477-10-10s4.478-10,10-10
				c2.839,0,5.721,0.181,8.565,0.538C448,197.313,473.329,226.099,473.329,260c0,30.938-20.92,57.846-50.873,65.434
				C417.054,326.805,411.459,327.5,405.829,327.5z"/>
			<path d="M432.5,500h-360c-5.523,0-10-4.479-10-10c0-5.523,4.477-10,10-10h360c5.522,0,10,4.477,10,10
				C442.5,495.521,438.022,500,432.5,500z"/>
		</g>
	</g>
</g>
<g id="Layer_1">
</g>
</svg>
