<?xml version="1.0" encoding="UTF-8" standalone="no"?> <svg xmlns="http://www.w3.org/2000/svg" viewBox="0 0 48 48"><defs><style>.cls-1{fill:#009ae0;}.cls-2{fill:#0081bd;}.cls-3{fill:#eaeff0;}.cls-4{fill:#d2d6d6;}</style></defs><title>Milk</title><g id="Milk"><path class="cls-1" d="M13,42a2,2,0,0,0,2,2l26,.026a2.006,2.006,0,0,0,2-2V16a1.993,1.993,0,0,0-.48-1.3L37,8.26v-3a1,1,0,0,0-1-1L20,4.232a1,1,0,0,0-1,1v3L13.482,14.67a2,2,0,0,0-.482,1.3Z"/><path class="cls-2" d="M13,15.972V42a2,2,0,0,0,2,2l10,.01V15L19,8.232,13.482,14.67A2,2,0,0,0,13,15.972Z"/><rect class="cls-3" x="29" y="24" width="10" height="6"/><path class="cls-3" d="M8.619,44h7.762a2,2,0,0,0,1.991-1.81l1.619-17A2,2,0,0,0,18,23H7a2,2,0,0,0-1.991,2.19l1.619,17A2,2,0,0,0,8.619,44Z"/><path class="cls-4" d="M5.375,29.028,6.628,42.19A2,2,0,0,0,8.619,44h7.762a2,2,0,0,0,1.991-1.81L19.628,29a12.946,12.946,0,0,1-7.128.028,12.512,12.512,0,0,0-7,0Z"/><path d="M39,23H29a1,1,0,0,0-1,1v6a1,1,0,0,0,1,1H39a1,1,0,0,0,1-1V24A1,1,0,0,0,39,23Zm-1,6H30V25h8Z"/><path d="M43.279,13.789,38,7.63V5a2,2,0,0,0-2-2H20a2,2,0,0,0-2,2V7.63l-5.278,6.157A2.991,2.991,0,0,0,12,15.74V22H7a3,3,0,0,0-2.986,3.284l1.619,17A2.988,2.988,0,0,0,8.619,45H41a3,3,0,0,0,3-3V15.74A2.986,2.986,0,0,0,43.279,13.789ZM40.826,14H25.46L21.174,9H36.54ZM19,9.537,22.826,14H15.174ZM36,5V7H20V5ZM6.26,24.327A.989.989,0,0,1,7,24H18A1,1,0,0,1,19,25.1l-.3,3.121a11.722,11.722,0,0,1-5.872-.133A13.692,13.692,0,0,0,6.262,27.8l-.257-2.7A.989.989,0,0,1,6.26,24.327ZM15,43H8.619a1,1,0,0,1-1-.905L6.453,29.8a11.775,11.775,0,0,1,5.721.176A12.211,12.211,0,0,0,16,30.529a13.915,13.915,0,0,0,2.5-.226L17.376,42.1a1,1,0,0,1-1,.905Zm4.2,0a2.968,2.968,0,0,0,.168-.716l1.619-17A3,3,0,0,0,18,22H14V16H24V43ZM41,43H26V16H42V42A1,1,0,0,1,41,43Z"/></g></svg>