<?xml version="1.0" encoding="UTF-8" standalone="no"?>
<!-- Created with Inkscape (http://www.inkscape.org/) -->

<svg
   xmlns:dc="http://purl.org/dc/elements/1.1/"
   xmlns:cc="http://creativecommons.org/ns#"
   xmlns:rdf="http://www.w3.org/1999/02/22-rdf-syntax-ns#"
   xmlns:svg="http://www.w3.org/2000/svg"
   xmlns="http://www.w3.org/2000/svg"
   xmlns:sodipodi="http://sodipodi.sourceforge.net/DTD/sodipodi-0.dtd"
   xmlns:inkscape="http://www.inkscape.org/namespaces/inkscape"
   width="64"
   height="64"
   viewBox="0 0 16.933333 16.933333"
   version="1.1"
   id="svg8"
   inkscape:version="0.92.3 (2405546, 2018-03-11)"
   sodipodi:docname="03-Eggs.svg">
  <defs
     id="defs2" />
  <sodipodi:namedview
     id="base"
     pagecolor="#ffffff"
     bordercolor="#666666"
     borderopacity="1.0"
     inkscape:pageopacity="0.0"
     inkscape:pageshadow="2"
     inkscape:zoom="5.6568545"
     inkscape:cx="38.828068"
     inkscape:cy="3.9275172"
     inkscape:document-units="px"
     inkscape:current-layer="layer2"
     showgrid="false"
     inkscape:snap-smooth-nodes="true"
     inkscape:snap-page="true"
     inkscape:snap-midpoints="false"
     inkscape:snap-intersection-paths="true"
     inkscape:object-paths="true"
     inkscape:object-nodes="true"
     units="px"
     inkscape:snap-bbox="true"
     inkscape:bbox-paths="false"
     inkscape:snap-bbox-midpoints="false"
     inkscape:window-width="1920"
     inkscape:window-height="1040"
     inkscape:window-x="0"
     inkscape:window-y="0"
     inkscape:window-maximized="1"
     inkscape:snap-grids="true"
     inkscape:snap-to-guides="true"
     inkscape:snap-bbox-edge-midpoints="false"
     inkscape:snap-nodes="true"
     inkscape:snap-others="false"
     inkscape:bbox-nodes="true"
     showguides="true"
     inkscape:guide-bbox="true"
     inkscape:measure-start="0,0"
     inkscape:measure-end="0,0"
     inkscape:snap-global="true">
    <inkscape:grid
       type="xygrid"
       id="grid815"
       enabled="true" />
  </sodipodi:namedview>
  <metadata
     id="metadata5">
    <rdf:RDF>
      <cc:Work
         rdf:about="">
        <dc:format>image/svg+xml</dc:format>
        <dc:type
           rdf:resource="http://purl.org/dc/dcmitype/StillImage" />
        <dc:title />
      </cc:Work>
    </rdf:RDF>
  </metadata>
  <g
     inkscape:groupmode="layer"
     id="layer2"
     inkscape:label="03-Eggs">
    <path
       sodipodi:nodetypes="ccccccccccccccccccccccc"
       inkscape:connector-curvature="0"
       id="path5774"
       d="m 1.3229166,11.90625 0.5291667,2.645833 c 0.052442,0.28843 0.2360083,0.529167 0.5291667,0.529167 h 2.116666 c 0.2931583,0 0.4716736,-0.241701 0.5291666,-0.529167 L 5.2916661,13.49375 C 5.32404,13.202384 5.5276743,12.964583 5.8208327,12.964583 H 6.085416 c 0.2931583,0 0.4716733,0.241701 0.5291672,0.529167 l 0.2645836,1.058333 c 0.05749,0.287465 0.236008,0.529167 0.529167,0.529167 h 2.116666 c 0.293158,0 0.471674,-0.241701 0.5291672,-0.529167 L 10.31875,13.49375 c 0.05749,-0.287465 0.236008,-0.529167 0.529167,-0.529167 H 11.1125 c 0.293158,0 0.496793,0.237801 0.529167,0.529167 l 0.264583,1.058333 c 0.05749,0.287465 0.236008,0.529167 0.529167,0.529167 h 2.116666 c 0.293158,0 0.476725,-0.240737 0.529167,-0.529167 l 0.529166,-2.645833 z"
       style="opacity:1;fill:#e2e7fa;fill-opacity:1;stroke:none;stroke-width:0.52916664;stroke-linecap:round;stroke-linejoin:round;stroke-miterlimit:4;stroke-dasharray:none;stroke-dashoffset:0;stroke-opacity:1" />
    <path
       style="opacity:1;fill:#e2e7fa;fill-opacity:1;stroke:none;stroke-width:0.52916664;stroke-linecap:round;stroke-linejoin:round;stroke-miterlimit:4;stroke-dasharray:none;stroke-dashoffset:0;stroke-opacity:1"
       d="M 2.9104166,11.906249 H 1.3229162 c -0.2931581,0 -0.52916621,-0.236008 -0.52916621,-0.529166 0,-0.293158 0.23600811,-0.529167 0.52916621,-0.529167 H 15.610418 c 0.293158,0 0.529166,0.236009 0.529166,0.529167 0,0.293158 -0.236008,0.529166 -0.529166,0.529166 h -1.587502"
       id="path5776"
       inkscape:connector-curvature="0"
       sodipodi:nodetypes="cccccccc" />
    <path
       inkscape:connector-curvature="0"
       style="opacity:1;fill:#a8c5f7;fill-opacity:1;stroke:none;stroke-width:0.52916664;stroke-linecap:round;stroke-linejoin:round;stroke-miterlimit:4;stroke-dasharray:none;stroke-dashoffset:0;stroke-opacity:1"
       d="M 6.0854162,10.710181 C 6.0854163,9.6231262 5.631553,8.6186461 4.894792,8.0751184 4.1580307,7.5315909 3.2503033,7.5315909 2.513542,8.0751185 1.7767808,8.6186459 1.3229171,9.6231261 1.322917,10.710181"
       id="path5736"
       sodipodi:nodetypes="cccc" />
    <path
       inkscape:connector-curvature="0"
       style="opacity:1;fill:#91b8fb;fill-opacity:1;stroke:none;stroke-width:0.52916664;stroke-linecap:round;stroke-linejoin:round;stroke-miterlimit:4;stroke-dasharray:none;stroke-dashoffset:0;stroke-opacity:1"
       d="m 3.7604949,7.6682657 c -0.1538857,-0.00436 -0.3077401,0.010345 -0.4594037,0.043925 0.2815017,0.058729 0.5524562,0.1816036 0.7999513,0.3627683 0.7367417,0.5435132 1.1906022,1.5479559 1.1906247,2.634982 h 0.79375 C 6.0853947,9.622915 5.6315341,8.6184722 4.8947925,8.0749591 4.5493204,7.8201363 4.1592847,7.6802921 3.7604949,7.6682657 Z"
       id="path5738"
       sodipodi:nodetypes="ccccccc" />
    <path
       inkscape:connector-curvature="0"
       style="opacity:1;fill:#f8f8f8;fill-opacity:1;stroke:none;stroke-width:0.52916664;stroke-linecap:round;stroke-linejoin:round;stroke-miterlimit:4;stroke-dasharray:none;stroke-dashoffset:0;stroke-opacity:1"
       d="M 3.7604949,7.6682657 C 3.3235099,7.6550232 2.892103,7.7957265 2.5135425,8.0749591 1.7768008,8.6184721 1.3229401,9.6229149 1.3229175,10.709941 H 1.8520842 C 1.8521068,9.6229149 2.3059675,8.6184721 3.0427092,8.0749591 3.3297437,7.8645613 3.6479463,7.7329156 3.977019,7.6884196 3.9051216,7.677499 3.8328719,7.670774 3.7604949,7.6682657 Z"
       id="path5740"
       sodipodi:nodetypes="ccccccc" />
    <path
       id="path5723"
       d="m 10.847915,10.710181 c 0,-1.0870546 -0.453863,-2.0915347 -1.1906237,-2.6350626 -0.7367613,-0.5435275 -1.6444887,-0.5435275 -2.38125,1e-7 -0.7367612,0.5435274 -1.1906249,1.5480076 -1.190625,2.6350625"
       style="opacity:1;fill:#a8c5f7;fill-opacity:1;stroke:none;stroke-width:0.52916664;stroke-linecap:round;stroke-linejoin:round;stroke-miterlimit:4;stroke-dasharray:none;stroke-dashoffset:0;stroke-opacity:1"
       inkscape:connector-curvature="0"
       sodipodi:nodetypes="cccc" />
    <path
       id="path5726"
       d="m 8.5229942,7.6682657 c -0.1538857,-0.00436 -0.3077401,0.010345 -0.4594037,0.043925 0.2815017,0.058729 0.5524562,0.1816036 0.7999513,0.3627683 0.7367415,0.5435133 1.1906022,1.547956 1.1906242,2.634982 h 0.79375 C 10.847894,9.6229151 10.394033,8.6184724 9.6572918,8.0749591 9.3118197,7.8201363 8.921784,7.6802921 8.5229942,7.6682657 Z"
       style="opacity:1;fill:#91b8fb;fill-opacity:1;stroke:none;stroke-width:0.52916664;stroke-linecap:round;stroke-linejoin:round;stroke-miterlimit:4;stroke-dasharray:none;stroke-dashoffset:0;stroke-opacity:1"
       inkscape:connector-curvature="0"
       sodipodi:nodetypes="ccccccc" />
    <path
       id="path5729"
       d="M 8.5229942,7.6682657 C 8.0860092,7.6550232 7.6546023,7.7957265 7.2760418,8.0749591 6.5393001,8.6184721 6.0854394,9.6229149 6.0854168,10.709941 H 6.6145835 C 6.6146061,9.6229149 7.0684668,8.6184721 7.8052085,8.0749591 8.092243,7.8645613 8.4104456,7.7329156 8.7395183,7.6884196 8.6676209,7.677499 8.5953712,7.670774 8.5229942,7.6682657 Z"
       style="opacity:1;fill:#f8f8f8;fill-opacity:1;stroke:none;stroke-width:0.52916664;stroke-linecap:round;stroke-linejoin:round;stroke-miterlimit:4;stroke-dasharray:none;stroke-dashoffset:0;stroke-opacity:1"
       inkscape:connector-curvature="0"
       sodipodi:nodetypes="ccccccc" />
    <path
       id="path5699"
       d="M 10.847916,6.3499999 C 10.083103,6.3508267 9.3809242,6.8902762 9.0216713,7.7530149 9.2445618,7.8207011 9.4586415,7.9291334 9.6572915,8.0749591 10.394033,8.6184723 10.847894,9.622915 10.847916,10.709941 10.847939,9.6229149 11.301799,8.6184721 12.038541,8.0749591 12.237581,7.929555 12.452013,7.8216433 12.675195,7.7545654 12.316093,6.8908081 11.613362,6.3506434 10.847916,6.3499999 Z"
       style="opacity:1;fill:#a8c5f7;fill-opacity:1;stroke:none;stroke-width:0.52916664;stroke-linecap:round;stroke-linejoin:round;stroke-miterlimit:4;stroke-dasharray:none;stroke-dashoffset:0;stroke-opacity:1"
       inkscape:connector-curvature="0"
       sodipodi:nodetypes="ccccccc" />
    <path
       style="opacity:1;fill:#91b8fb;fill-opacity:1;stroke:none;stroke-width:0.52916664;stroke-linecap:round;stroke-linejoin:round;stroke-miterlimit:4;stroke-dasharray:none;stroke-dashoffset:0;stroke-opacity:1"
       d="m 12.346016,7.1752726 c -0.294557,0.055584 -0.578342,0.181263 -0.836641,0.3705199 -0.471228,0.3485977 -0.834726,0.8930236 -1.029911,1.5425414 0.164211,0.3334396 0.276182,0.7044542 0.329695,1.0924401 h 0.07752 C 11.008506,9.2959714 11.430117,8.5251897 12.038542,8.0749591 12.237582,7.9295551 12.452013,7.8216434 12.675195,7.7545654 12.586514,7.543304 12.475774,7.3484229 12.346016,7.1752726 Z"
       id="path5747"
       inkscape:connector-curvature="0"
       sodipodi:nodetypes="cccccccc" />
    <path
       style="opacity:1;fill:#f8f8f8;fill-opacity:1;stroke:none;stroke-width:0.52916664;stroke-linecap:round;stroke-linejoin:round;stroke-miterlimit:4;stroke-dasharray:none;stroke-dashoffset:0;stroke-opacity:1"
       d="M 9.550838,7.7530149 C 9.8660671,6.9982246 10.447468,6.4847826 11.111466,6.3748046 11.02412,6.3593744 10.93609,6.3510895 10.847917,6.3499999 10.083103,6.3508201 9.3809245,6.8902762 9.0216714,7.7530149 Z"
       id="path5760"
       inkscape:connector-curvature="0"
       sodipodi:nodetypes="ccccc" />
    <path
       inkscape:connector-curvature="0"
       style="opacity:1;fill:#a8c5f7;fill-opacity:1;stroke:none;stroke-width:0.52916664;stroke-linecap:round;stroke-linejoin:round;stroke-miterlimit:4;stroke-dasharray:none;stroke-dashoffset:0;stroke-opacity:1"
       d="M 6.0854166,6.3499999 C 5.3206031,6.3508264 4.6184244,6.890276 4.2591714,7.7530149 4.4820619,7.8207011 4.6961416,7.9291334 4.8947916,8.0749591 5.6315333,8.6184721 6.085394,9.6229149 6.0854166,10.709941 6.0854392,9.6229149 6.5392999,8.6184721 7.2760416,8.0749591 7.4750817,7.929555 7.6895129,7.8216433 7.9126952,7.7545654 7.5535935,6.8908083 6.8508628,6.3506436 6.0854166,6.3499999 Z"
       id="path5696"
       sodipodi:nodetypes="ccccccc" />
    <path
       inkscape:connector-curvature="0"
       id="path5767"
       d="M 7.5829995,7.1752726 C 7.2884427,7.2308565 7.0046569,7.3565356 6.7463582,7.5457925 6.2751297,7.8943901 5.9116319,8.4388161 5.7164469,9.0883339 5.8806581,9.4217734 5.9926294,9.792788 6.0461426,10.180774 h 0.077515 C 6.2454855,9.2959705 6.6670982,8.5251885 7.2755248,8.0749591 7.474565,7.929555 7.6889961,7.8216433 7.9121785,7.7545654 7.8234978,7.543304 7.712758,7.3484229 7.5829995,7.1752726 Z"
       style="opacity:1;fill:#91b8fb;fill-opacity:1;stroke:none;stroke-width:0.52916664;stroke-linecap:round;stroke-linejoin:round;stroke-miterlimit:4;stroke-dasharray:none;stroke-dashoffset:0;stroke-opacity:1"
       sodipodi:nodetypes="cccccccc" />
    <path
       sodipodi:nodetypes="ccccc"
       inkscape:connector-curvature="0"
       id="path5770"
       d="M 4.7878213,7.7530149 C 5.1030504,6.9982246 5.6844508,6.4847826 6.3484497,6.3748046 6.2611028,6.3593744 6.1730735,6.3510895 6.0848998,6.3499999 5.3200863,6.3508201 4.6179078,6.8902762 4.2586547,7.7530149 Z"
       style="opacity:1;fill:#f8f8f8;fill-opacity:1;stroke:none;stroke-width:0.52916664;stroke-linecap:round;stroke-linejoin:round;stroke-miterlimit:4;stroke-dasharray:none;stroke-dashoffset:0;stroke-opacity:1" />
    <path
       inkscape:connector-curvature="0"
       style="opacity:1;fill:#a8c5f7;fill-opacity:1;stroke:none;stroke-width:0.52916664;stroke-linecap:round;stroke-linejoin:round;stroke-miterlimit:4;stroke-dasharray:none;stroke-dashoffset:0;stroke-opacity:1"
       d="m 15.610416,10.710181 c 0,-1.087055 -0.453864,-2.0915351 -1.190625,-2.6350626 -0.736761,-0.5435275 -1.644489,-0.5435275 -2.38125,1e-7 -0.736761,0.5435274 -1.190625,1.5480076 -1.190625,2.6350625"
       id="path5662"
       sodipodi:nodetypes="cccc" />
    <path
       inkscape:connector-curvature="0"
       style="opacity:1;fill:#91b8fb;fill-opacity:1;stroke:none;stroke-width:0.52916664;stroke-linecap:round;stroke-linejoin:round;stroke-miterlimit:4;stroke-dasharray:none;stroke-dashoffset:0;stroke-opacity:1"
       d="m 13.285494,7.6682657 c -0.153886,-0.00437 -0.30774,0.010345 -0.459404,0.043925 0.281502,0.058729 0.552456,0.1816037 0.799951,0.3627683 0.736742,0.5435131 1.190602,1.5479558 1.190625,2.634982 h 0.79375 C 15.610393,9.6229149 15.156533,8.6184721 14.419791,8.0749591 14.074319,7.8201364 13.684284,7.6802922 13.285494,7.6682657 Z"
       id="path5714"
       sodipodi:nodetypes="ccccccc" />
    <path
       inkscape:connector-curvature="0"
       style="opacity:1;fill:#f8f8f8;fill-opacity:1;stroke:none;stroke-width:0.52916664;stroke-linecap:round;stroke-linejoin:round;stroke-miterlimit:4;stroke-dasharray:none;stroke-dashoffset:0;stroke-opacity:1"
       d="M 13.285494,7.6682657 C 12.848509,7.6550233 12.417102,7.7957266 12.038542,8.0749591 11.3018,8.6184721 10.84794,9.6229149 10.847917,10.709941 h 0.529166 c 2.3e-5,-1.0870261 0.453883,-2.0914689 1.190625,-2.6349819 0.287035,-0.2103979 0.605237,-0.3420436 0.93431,-0.3865395 -0.0719,-0.010921 -0.144147,-0.017646 -0.216524,-0.020154 z"
       id="path5719"
       sodipodi:nodetypes="ccccccc" />
    <path
       style="opacity:1;fill:#c4d2f0;fill-opacity:1;stroke:none;stroke-width:0.52916664;stroke-linecap:round;stroke-linejoin:round;stroke-miterlimit:4;stroke-dasharray:none;stroke-dashoffset:0;stroke-opacity:1"
       d="m 1.3229166,12.170833 0.05271,0.264583 h 1.53479 11.1124994 1.53479 l 0.05271,-0.264583 z"
       id="path5783"
       inkscape:connector-curvature="0"
       sodipodi:nodetypes="ccccccc" />
    <path
       inkscape:connector-curvature="0"
       style="opacity:1;fill:#c4d2f0;fill-opacity:1;stroke:none;stroke-width:0.52916664;stroke-linecap:round;stroke-linejoin:round;stroke-miterlimit:4;stroke-dasharray:none;stroke-dashoffset:0;stroke-opacity:1"
       d="M 14.816666,11.90625 14.2875,14.552083 c -0.05244,0.28843 -0.236009,0.529167 -0.529167,0.529167 h 0.79375 c 0.293158,0 0.476725,-0.240737 0.529167,-0.529167 l 0.529166,-2.645833 z m -9.7895827,1.058333 c -0.2931584,0 -0.4967928,0.237801 -0.5291667,0.529167 L 4.2333333,14.552083 C 4.1758404,14.839549 3.9973249,15.08125 3.7041666,15.08125 h 0.79375 c 0.2931583,0 0.4716738,-0.241701 0.5291667,-0.529167 L 5.2916666,13.49375 c 0.021156,-0.190392 0.1163632,-0.356342 0.2609659,-0.449585 -0.073532,-0.04938 -0.159948,-0.07958 -0.2609659,-0.07958 z m 5.0270837,0 c -0.2931591,0 -0.4716771,0.241702 -0.5291671,0.529167 L 9.2604166,14.552083 C 9.2029234,14.839549 9.024408,15.08125 8.7312499,15.08125 h 0.79375 c 0.293158,0 0.4716735,-0.241701 0.5291671,-0.529167 L 10.31875,13.49375 c 0.03768,-0.188409 0.128339,-0.355659 0.268201,-0.449585 -0.07669,-0.04945 -0.166606,-0.07958 -0.268201,-0.07958 z"
       id="path5792"
       sodipodi:nodetypes="ccccccccccccccccccccccccccc" />
    <path
       inkscape:connector-curvature="0"
       style="opacity:1;fill:#f8f8f8;fill-opacity:1;stroke:none;stroke-width:0.52916664;stroke-linecap:round;stroke-linejoin:round;stroke-miterlimit:4;stroke-dasharray:none;stroke-dashoffset:0;stroke-opacity:1"
       d="m 1.3229166,11.90625 0.5291667,2.645833 c 0.052442,0.28843 0.2360083,0.529167 0.5291667,0.529167 h 0.5291666 c -0.2931584,0 -0.4767246,-0.240737 -0.5291666,-0.529167 L 1.8520833,11.90625 Z m 5.0270833,1.058333 c -0.047208,0 -0.091101,0.0081 -0.1333251,0.01964 0.2150179,0.06093 0.3496495,0.268237 0.3979084,0.509529 l 0.2645834,1.058333 c 0.05749,0.287465 0.2360075,0.529167 0.5291666,0.529167 h 0.5291667 c -0.2931591,0 -0.4716767,-0.241702 -0.5291667,-0.529167 L 7.1437499,13.49375 C 7.086256,13.206284 6.9077416,12.964583 6.6145832,12.964583 Z m 5.0270831,0 c -0.04709,0 -0.09011,0.008 -0.131258,0.01964 0.219983,0.06025 0.368681,0.265082 0.395842,0.509529 l 0.264583,1.058333 c 0.05749,0.287465 0.236007,0.529167 0.529167,0.529167 h 0.529166 c -0.293159,0 -0.471677,-0.241702 -0.529166,-0.529167 L 12.170833,13.49375 c -0.03237,-0.291366 -0.236008,-0.529167 -0.529166,-0.529167 z"
       id="path5797"
       sodipodi:nodetypes="ccccccccccccccccccccccccccc" />
    <path
       inkscape:connector-curvature="0"
       style="opacity:1;fill:#f8f8f8;fill-opacity:1;stroke:none;stroke-width:0.52916664;stroke-linecap:round;stroke-linejoin:round;stroke-miterlimit:4;stroke-dasharray:none;stroke-dashoffset:0;stroke-opacity:1"
       d="m 1.3229166,10.847917 c -0.293158,0 -0.52916661,0.236008 -0.52916661,0.529166 0,0.293158 0.23600861,0.529167 0.52916661,0.529167 h 0.5291667 c -0.2931581,0 -0.5291667,-0.236009 -0.5291667,-0.529167 0,-0.293158 0.2360086,-0.529166 0.5291667,-0.529166 z"
       id="path5806"
       sodipodi:nodetypes="ccccccc" />
    <path
       inkscape:connector-curvature="0"
       style="opacity:1;fill:#c4d2f0;fill-opacity:1;stroke:none;stroke-width:0.52916664;stroke-linecap:round;stroke-linejoin:round;stroke-miterlimit:4;stroke-dasharray:none;stroke-dashoffset:0;stroke-opacity:1"
       d="m 14.816666,10.847917 c 0.293159,0 0.529167,0.236008 0.529167,0.529166 0,0.293158 -0.236008,0.529167 -0.529167,0.529167 h 0.79375 c 0.293159,0 0.529167,-0.236009 0.529167,-0.529167 0,-0.293158 -0.236008,-0.529166 -0.529167,-0.529166 z"
       id="path5814"
       sodipodi:nodetypes="ccccccc" />
    <path
       style="color:#000000;font-style:normal;font-variant:normal;font-weight:normal;font-stretch:normal;font-size:medium;line-height:normal;font-family:sans-serif;font-variant-ligatures:normal;font-variant-position:normal;font-variant-caps:normal;font-variant-numeric:normal;font-variant-alternates:normal;font-feature-settings:normal;text-indent:0;text-align:start;text-decoration:none;text-decoration-line:none;text-decoration-style:solid;text-decoration-color:#000000;letter-spacing:normal;word-spacing:normal;text-transform:none;writing-mode:lr-tb;direction:ltr;text-orientation:mixed;dominant-baseline:auto;baseline-shift:baseline;text-anchor:start;white-space:normal;shape-padding:0;clip-rule:nonzero;display:inline;overflow:visible;visibility:visible;opacity:1;isolation:auto;mix-blend-mode:normal;color-interpolation:sRGB;color-interpolation-filters:linearRGB;solid-color:#000000;solid-opacity:1;vector-effect:none;fill:#66a0fe;fill-opacity:1;fill-rule:nonzero;stroke:none;stroke-width:0.52916664;stroke-linecap:round;stroke-linejoin:miter;stroke-miterlimit:4;stroke-dasharray:none;stroke-dashoffset:0;stroke-opacity:1;color-rendering:auto;image-rendering:auto;shape-rendering:auto;text-rendering:auto;enable-background:accumulate"
       d="m 8.4666658,1.5874981 c -0.1323199,0 -0.2645798,0.08815 -0.2645798,0.264583 v 0.79375 c 0,0.352865 0.52916,0.352865 0.52916,0 v -0.79375 c 0,-0.176432 -0.1322602,-0.264583 -0.2645802,-0.264583 z M 4.1935459,2.7228291 C 4.031686,2.7526091 3.894136,2.9276781 4.0044058,3.1186701 l 0.3968703,0.687297 c 0.1764397,0.30559 0.63481,0.041 0.4583699,-0.264583 L 4.4627761,2.8540871 c -0.0662,-0.114596 -0.1721202,-0.14913 -0.2692302,-0.131258 z m 8.5462411,0 c -0.0971,-0.01787 -0.20255,0.01666 -0.26871,0.131258 l -0.39688,0.687297 c -0.17643,0.305589 0.28194,0.570173 0.45837,0.264583 l 0.39688,-0.687297 c 0.11027,-0.190993 -0.0278,-0.366056 -0.18966,-0.395841 z M 1.154966,5.8182472 C 0.90376603,5.7901972 0.73461607,6.1604808 1.002006,6.3148581 l 0.6873,0.396875 c 0.30558,0.1764317 0.57017,-0.2819392 0.26458,-0.45837 l -0.6873,-0.3968749 c -0.0382,-0.02205 -0.0757,-0.03423 -0.11162,-0.038241 z m 14.623401,0 c -0.0359,0.004 -0.0734,0.01619 -0.11162,0.03824 l -0.6873,0.3968749 c -0.30559,0.1764319 -0.041,0.6348019 0.26458,0.4583701 l 0.6873,-0.3968751 C 16.198717,6.160479 16.029527,5.7902 15.778367,5.8182472 Z M 4.102076,7.4414039 C 3.9688458,7.416544 3.838996,7.4082439 3.7041659,7.408334 3.2266758,7.408023 2.767526,7.5586501 2.356956,7.861536 c -0.801,0.5909221 -1.27672,1.638679 -1.29862,2.768308 -0.30861993,0.107078 -0.52916993,0.396682 -0.52916993,0.747241 0,0.36423 0.24111,0.665314 0.56843993,0.761194 l 0.49454,2.463415 c 0.035,0.185325 0.10865,0.362749 0.23927,0.503846 0.13164,0.142205 0.32049,0.240295 0.5488,0.240295 h 2.11718 c 0.23377,0 0.4183999,-0.100309 0.5488099,-0.242363 0.12979,-0.141387 0.20232,-0.317708 0.2397799,-0.499194 l 0.2625101,-1.045931 c 0.0276,-0.190514 0.10658,-0.325495 0.2713,-0.329695 h 0.26562 c 0.0615,0 0.11162,0.02117 0.1581301,0.07183 0.0465,0.05066 0.0904,0.138238 0.11265,0.251147 l 0.2635499,1.052649 c 0.0375,0.181486 0.1115301,0.357807 0.2413301,0.499194 0.14013,0.152632 0.32745,0.242363 0.5467401,0.242363 h 2.1176998 c 0.2192901,0 0.4066106,-0.08973 0.5467401,-0.242363 0.12979,-0.141387 0.203861,-0.317708 0.24133,-0.499194 l 0.263541,-1.052649 c 0.0222,-0.11291 0.0662,-0.200484 0.11266,-0.251147 0.0465,-0.05066 0.0967,-0.07183 0.15813,-0.07183 h 0.26562 c 0.16472,0.0042 0.24368,0.139181 0.2713,0.329695 l 0.26251,1.045931 c 0.0375,0.181486 0.10998,0.357807 0.23978,0.499194 0.13041,0.142054 0.31504,0.242363 0.54881,0.242363 h 2.11718 c 0.2283,0 0.41716,-0.09809 0.5488,-0.240295 0.13062,-0.141097 0.20426,-0.318521 0.23927,-0.503846 l 0.49454,-2.463415 c 0.32733,-0.09588 0.56844,-0.396964 0.56844,-0.761194 0,-0.350559 -0.22055,-0.640163 -0.52917,-0.747241 -0.0219,-1.129629 -0.49762,-2.177386 -1.29863,-2.768308 -0.41056,-0.3028861 -0.86971,-0.453513 -1.3472,-0.4532022 -0.13483,-8.79e-5 -0.26469,0.0082 -0.39791,0.03307 -0.42887,-0.8254058 -1.16477,-1.355585 -1.98334,-1.3559899 -0.81857,3.97e-4 -1.554991,0.530065 -1.983861,1.3554729 -0.1325301,-0.024741 -0.2612501,-0.03256 -0.3963601,-0.03256 h -0.00101 -0.00101 c -0.13511,-6.1e-6 -0.26383,0.0078 -0.3963598,0.03256 C 7.6404552,6.6154788 6.9040351,6.0858108 6.0854405,6.0854139 5.2668459,6.085811 4.530946,6.6159981 4.102076,7.4414039 Z M 6.0854159,6.614581 C 6.650536,6.6151101 7.198306,6.968302 7.555606,7.6041851 7.4060359,7.6718049 7.2581759,7.7591989 7.119456,7.8615328 6.655466,8.2038309 6.3059059,8.693396 6.0854159,9.269199 5.8649259,8.693396 5.5153661,8.2038309 5.051366,7.8615328 4.912786,7.759295 4.7656758,7.6717768 4.6162558,7.6041851 4.9734759,6.9683051 5.5202961,6.6151099 6.0854159,6.614581 Z m 4.7625011,0 c 0.56511,5.291e-4 1.11194,0.3537231 1.46916,0.9896041 -0.14942,0.06759 -0.29653,0.1551099 -0.43512,0.2573477 -0.46399,0.3422981 -0.81355,0.8318633 -1.03404,1.4076662 C 10.627427,8.693396 10.277856,8.2038309 9.8138659,7.8615328 9.675156,7.7591989 9.527296,7.6718082 9.3777159,7.6041851 9.7350259,6.968302 10.282797,6.6151009 10.847917,6.614581 Z M 3.7041659,7.9374979 c 0.35389,-7.38e-5 0.7078501,0.108829 1.03456,0.349849 0.62563,0.46154 1.04775,1.3258551 1.0821101,2.2959841 -1.4066401,-5.1e-5 -2.82671,2.43e-4 -4.23334,0 0.0343,-0.970129 0.45648,-1.8344441 1.08211,-2.2959841 0.32671,-0.24102 0.6806699,-0.3499228 1.0345599,-0.349849 z m 5.7970201,0.349849 c 0.62563,0.46154 1.047761,1.3258551 1.082111,2.2959841 -1.4539778,-1.5e-5 -2.8811946,2.8e-5 -4.2333411,0 0.034291,-0.970129 0.456471,-1.8344441 1.0821008,-2.2959841 0.3260592,-0.2405528 0.6792692,-0.3495051 1.0345592,-0.349849 0.3552799,3.439e-4 0.7084899,0.1092962 1.0345701,0.349849 z m 3.727981,-0.349849 c 0.35389,-7.38e-5 0.70785,0.108829 1.03456,0.349849 0.62563,0.46154 1.04776,1.3258551 1.08211,2.2959841 -1.40664,2.43e-4 -2.8267,-5.2e-5 -4.23334,0 0.0344,-0.970129 0.45648,-1.8344441 1.08211,-2.2959841 0.32671,-0.24102 0.68067,-0.3499228 1.03456,-0.349849 z M 1.321886,11.112499 c 4.9077344,-2.62e-4 9.728024,3.64e-4 14.289561,0 0.15116,-1.4e-5 0.26355,0.124797 0.26355,0.264583 0,0.139786 -0.11239,0.26467 -0.26355,0.264583 h -1.58801 c -0.16317,0 -0.26389,0.131287 -0.2651,0.262517 -10e-4,0.132888 0.1036,0.26665 0.2651,0.26665 h 1.26452 l -0.46664,2.331124 c -0.0198,0.105454 -0.062,0.192091 -0.10852,0.242362 -0.0465,0.05027 -0.0933,0.07183 -0.1602,0.07183 h -2.11718 c -0.0635,0 -0.11162,-0.01962 -0.15813,-0.07028 -0.0695,-0.08375 -0.0967,-0.180953 -0.11524,-0.257349 l -0.25838,-1.036113 c -0.0577,-0.412185 -0.35389,-0.753442 -0.79013,-0.753442 h -0.26614 c -0.24203,0 -0.416321,0.102376 -0.546731,0.24443 -0.12939,0.140935 -0.20375,0.31427 -0.241329,0.496093 l -0.2635511,1.054716 c -0.022201,0.111942 -0.0656,0.201002 -0.1121399,0.251665 -0.0319,0.03472 -0.0843,0.07028 -0.1581301,0.07028 H 7.4078161 c -0.0739,0 -0.1262603,-0.03556 -0.1581301,-0.07028 -0.0465,-0.05066 -0.09,-0.139723 -0.11214,-0.251665 L 6.8739959,13.439487 c -0.0376,-0.181823 -0.11195,-0.355158 -0.2413299,-0.496093 -0.1304099,-0.142054 -0.3047,-0.24443 -0.5467299,-0.24443 H 5.8197959 c -0.4362399,0 -0.73246,0.341257 -0.7901299,0.753442 l -0.2583799,1.036113 c -0.0186,0.0764 -0.0457,0.173598 -0.1152401,0.257349 -0.0465,0.05066 -0.0946,0.07028 -0.1581301,0.07028 H 2.380736 c -0.0669,0 -0.11366,-0.02156 -0.1602,-0.07183 -0.0465,-0.05027 -0.0887,-0.136908 -0.10852,-0.242362 l -0.46664,-2.331124 h 1.26452 c 0.1615,0 0.2663,-0.133762 0.2651,-0.26665 -0.001,-0.13123 -0.10193,-0.262517 -0.2651,-0.262517 h -1.58801 c -0.15116,8.9e-5 -0.26355,-0.124797 -0.26355,-0.264583 0,-0.139786 0.11239,-0.264597 0.26355,-0.264583 z"
       id="path8234"
       inkscape:connector-curvature="0"
       sodipodi:nodetypes="ccccccccccccccccccccccccccccccccccccccccccccccccccccccccccccccccccccccccccccccccccccccccccccccccccccccccccccccccccccccccccccccccccccccccccccccccccccccccc" />
  </g>
</svg>
