<?xml version="1.0" encoding="UTF-8" standalone="no"?> <svg width="512" height="512" viewBox="0 0 512 512" fill="none" xmlns="http://www.w3.org/2000/svg">
<path d="M464 296H240V328H464V296Z" fill="#5549C1"/>
<path d="M248 328V472C248 476.243 249.686 480.313 252.686 483.314C255.687 486.314 259.757 488 264 488H440C444.243 488 448.313 486.314 451.314 483.314C454.314 480.313 456 476.243 456 472V328H248Z" fill="#6A59D1"/>
<path d="M352.464 166.678L328 152V112H288V152L263.536 166.678C258.798 169.521 254.876 173.543 252.154 178.352C249.431 183.16 248 188.592 248 194.118V296H368V194.118C368 188.592 366.569 183.16 363.846 178.352C361.124 173.543 357.202 169.521 352.464 166.678V166.678Z" fill="#6A59D1"/>
<path d="M328 112H288V152H328V112Z" fill="#FF9A83"/>
<path d="M443.2 198.4L424 184V136H392V168L365.374 207.938C361.87 213.195 360 219.371 360 225.689V296H456V224C456 219.032 454.843 214.133 452.622 209.689C450.4 205.246 447.174 201.381 443.2 198.4V198.4Z" fill="#FF8661"/>
<path d="M448.155 177.569L441.441 144H360V128H448C449.849 128 451.642 128.641 453.072 129.813C454.502 130.986 455.482 132.618 455.845 134.431L463.845 174.431L448.155 177.569Z" fill="#E56B53"/>
<path d="M408 256C416.837 256 424 248.837 424 240C424 231.163 416.837 224 408 224C399.163 224 392 231.163 392 240C392 248.837 399.163 256 408 256Z" fill="#6A59D1"/>
<path d="M336 192H320V272H336V192Z" fill="#9090F4"/>
<path d="M264 16L128 424H168L304 16H264Z" fill="#8C8C8C"/>
<path d="M24 440V456H280V440C280 435.757 278.314 431.687 275.314 428.686C272.313 425.686 268.243 424 264 424H40C35.7565 424 31.6869 425.686 28.6863 428.686C25.6857 431.687 24 435.757 24 440V440Z" fill="#353535"/>
<path d="M48 456H32V496H48V456Z" fill="#8C8C8C"/>
<path d="M80 456H64V496H80V456Z" fill="#8C8C8C"/>
<path d="M112 456H96V496H112V456Z" fill="#8C8C8C"/>
<path d="M144 456H128V496H144V456Z" fill="#8C8C8C"/>
<path d="M176 456H160V496H176V456Z" fill="#8C8C8C"/>
<path d="M208 456H192V496H208V456Z" fill="#8C8C8C"/>
<path d="M240 456H224V496H240V456Z" fill="#8C8C8C"/>
<path d="M185.504 24H187.561C193.702 24 199.723 25.7102 204.947 28.9391C210.171 32.1679 214.393 36.7878 217.14 42.2811V42.2811C219.289 46.5798 220.476 51.2953 220.617 56.0994C220.758 60.9034 219.851 65.6805 217.958 70.098L150.484 227.536C147.668 234.106 143.488 240.003 138.221 244.836C132.954 249.668 126.72 253.327 119.932 255.568C113.145 257.809 105.958 258.582 98.8489 257.836C91.7397 257.09 84.8703 254.841 78.6958 251.239H78.6957C72.7198 247.754 67.5247 243.076 63.4334 237.497C59.3422 231.918 56.4421 225.557 54.9136 218.809C53.3851 212.062 53.2608 205.072 54.5484 198.275C55.836 191.477 58.5079 185.017 62.3982 179.296L158.157 38.4748C161.189 34.0151 165.266 30.3648 170.033 27.8418C174.8 25.3189 180.111 24 185.504 24V24Z" fill="#FF8661"/>
<path d="M160.982 84.1716L16.9717 348.166L31.0176 355.828L175.028 91.8337L160.982 84.1716Z" fill="#E56B53"/>
<path d="M272 456H256V496H272V456Z" fill="#8C8C8C"/>
<path d="M448 32C447.773 32.0008 447.553 32.0791 447.377 32.222C447.201 32.3648 447.078 32.5636 447.031 32.7854C445.362 40.1685 441.635 46.9275 436.282 52.2791C430.929 57.6307 424.169 61.3557 416.785 63.0223C416.564 63.0702 416.365 63.1924 416.222 63.3687C416.079 63.545 416.001 63.7649 416 63.9918V63.9999C416.001 64.2269 416.079 64.4467 416.222 64.623C416.365 64.7993 416.564 64.9215 416.785 64.9694C424.168 66.638 430.928 70.3648 436.279 75.7179C441.631 81.071 445.356 87.831 447.022 95.2146C447.07 95.4364 447.192 95.6352 447.369 95.778C447.545 95.9208 447.765 95.9991 447.992 95.9999H448.008C448.235 95.9991 448.455 95.9208 448.631 95.778C448.808 95.6352 448.93 95.4364 448.978 95.2146C450.644 87.831 454.369 81.071 459.721 75.7179C465.072 70.3648 471.832 66.638 479.215 64.9694C479.436 64.9215 479.635 64.7993 479.778 64.623C479.921 64.4467 479.999 64.2269 480 63.9999V63.9918C479.999 63.7649 479.921 63.545 479.778 63.3687C479.635 63.1924 479.436 63.0702 479.215 63.0223C471.831 61.3557 465.071 57.6307 459.718 52.2791C454.365 46.9275 450.638 40.1685 448.969 32.7854C448.922 32.5636 448.799 32.3648 448.623 32.222C448.447 32.0791 448.227 32.0008 448 32V32Z" fill="#FCDCC8"/>
<path d="M64 32C63.7731 32.0008 63.5533 32.0791 63.3769 32.222C63.2006 32.3648 63.0784 32.5636 63.0305 32.7854C61.3619 40.1685 57.635 46.9275 52.282 52.2791C46.9289 57.6307 40.1689 61.3557 32.7853 63.0223C32.5635 63.0702 32.3648 63.1924 32.2219 63.3687C32.0791 63.545 32.0008 63.7649 32 63.9918V63.9999C32.0008 64.2269 32.0791 64.4467 32.222 64.623C32.3648 64.7993 32.5636 64.9215 32.7854 64.9694C40.1685 66.638 46.9275 70.3648 52.2791 75.7179C57.6307 81.071 61.3556 87.831 63.0222 95.2146C63.0701 95.4364 63.1923 95.6352 63.3686 95.778C63.5449 95.9208 63.7647 95.9991 63.9916 95.9999H64.0083C64.2353 95.9991 64.4551 95.9208 64.6314 95.778C64.8077 95.6352 64.9299 95.4364 64.9778 95.2146C66.6444 87.831 70.3693 81.071 75.7209 75.7179C81.0725 70.3648 87.8315 66.638 95.2146 64.9694C95.4364 64.9215 95.6352 64.7993 95.778 64.623C95.9209 64.4467 95.9992 64.2269 96 63.9999V63.9918C95.9992 63.7649 95.9209 63.545 95.7781 63.3687C95.6352 63.1924 95.4365 63.0702 95.2147 63.0223C87.8311 61.3557 81.0711 57.6307 75.718 52.2791C70.365 46.9275 66.6381 40.1685 64.9695 32.7854C64.9216 32.5636 64.7994 32.3648 64.6231 32.222C64.4467 32.0791 64.2269 32.0008 64 32Z" fill="#FCDCC8"/>
<path d="M112 296C111.773 296.001 111.553 296.079 111.377 296.222C111.201 296.365 111.078 296.564 111.031 296.785C109.362 304.168 105.635 310.928 100.282 316.279C94.929 321.631 88.1689 325.356 80.7853 327.022C80.5635 327.07 80.3648 327.192 80.2219 327.369C80.0791 327.545 80.0008 327.765 80 327.992V328C80.0008 328.227 80.0791 328.447 80.222 328.623C80.3648 328.799 80.5636 328.922 80.7854 328.969C88.1685 330.638 94.9275 334.365 100.279 339.718C105.631 345.071 109.356 351.831 111.022 359.215C111.07 359.436 111.192 359.635 111.369 359.778C111.545 359.921 111.765 359.999 111.992 360H112.008C112.235 359.999 112.455 359.921 112.631 359.778C112.808 359.635 112.93 359.436 112.978 359.215C114.644 351.831 118.369 345.071 123.721 339.718C129.072 334.365 135.831 330.638 143.215 328.969C143.436 328.922 143.635 328.799 143.778 328.623C143.921 328.447 143.999 328.227 144 328V327.992C143.999 327.765 143.921 327.545 143.778 327.369C143.635 327.192 143.436 327.07 143.215 327.022C135.831 325.356 129.071 321.631 123.718 316.279C118.365 310.928 114.638 304.168 112.969 296.785C112.922 296.564 112.799 296.365 112.623 296.222C112.447 296.079 112.227 296.001 112 296V296Z" fill="#FCDCC8"/>
<path d="M495.589 421.47L464.433 328H447.567L476.9 416H317.766L288.433 328H271.567L304.411 426.53C304.942 428.123 305.96 429.508 307.322 430.49C308.684 431.472 310.321 432 312 432H488C489.268 432 490.517 431.699 491.645 431.121C492.774 430.543 493.749 429.706 494.49 428.678C495.231 427.649 495.717 426.46 495.908 425.206C496.1 423.953 495.99 422.673 495.589 421.47V421.47Z" fill="#FF8661"/>
<path d="M226.286 249.143L245.714 190.857L211.429 173.714L192 232L226.286 249.143Z" fill="#6E6E6E"/>
</svg>
