<?xml version="1.0" encoding="UTF-8" standalone="no"?> <svg xmlns="http://www.w3.org/2000/svg" viewBox="0 0 73.44 69.4"><defs><style>.cls-1{isolation:isolate;}.cls-2{fill:#ffb77b;}.cls-3{fill:#371438;}.cls-4{fill:#dd8136;opacity:0.5;mix-blend-mode:multiply;}.cls-5{fill:#ffbbd2;}.cls-6{fill:#fff;}</style></defs><title>Asset 11</title><g class="cls-1"><g id="Layer_2" data-name="Layer 2"><g id="Layer_1-2" data-name="Layer 1"><path class="cls-2" d="M21.32,26.6,4.76,47A12.45,12.45,0,0,0,22.37,64.65L42.81,48.09Z"/><path class="cls-3" d="M13.56,69.4A13.56,13.56,0,0,1,3.93,46.29l3.7-4.57a1.12,1.12,0,1,1,1.73,1.41l-3.81,4.7a11.33,11.33,0,0,0,16,16l.08-.08L41.14,48,21.41,28.27l-4,4.88a1.13,1.13,0,0,1-1.58.17,1.11,1.11,0,0,1-.16-1.57l5.52-6.82L44.47,48.17,23.12,65.48A13.52,13.52,0,0,1,13.56,69.4Z"/><path class="cls-3" d="M11.87,39.38A1.11,1.11,0,0,1,11,37.56l3.11-3.84a1.12,1.12,0,0,1,1.74,1.41L12.74,39A1.13,1.13,0,0,1,11.87,39.38Z"/><path class="cls-4" d="M4,63l-1-.54a12.08,12.08,0,0,0,1.74,2.21,12.49,12.49,0,0,0,17.61,0L42.81,48.09,34.7,40c-1.87.91-4,2.76-6.34,5.9C13.86,65.14,4,63,4,63Z"/><path class="cls-2" d="M22.09,18.71c-5.72,5.72-4,16.77,3.94,24.67S45,53,50.7,47.31Z"/><path class="cls-3" d="M41.92,51.77c-5.5,0-11.71-2.63-16.68-7.6-8.33-8.32-10.09-20.1-3.94-26.26l.79-.79L52.28,47.31l-.79.79A13.22,13.22,0,0,1,41.92,51.77ZM22.14,20.33c-4.34,5.48-2.4,15.18,4.68,22.26s16.77,9,22.25,4.68Z"/><path class="cls-4" d="M48.93,45.54c-6,3.92-15.75,1.82-22.9-5.33A24,24,0,0,1,18.83,26c-.57,5.55,2,12.18,7.2,17.43C33.93,51.28,45,53,50.7,47.31Z"/><ellipse class="cls-2" cx="36.99" cy="32.42" rx="6.97" ry="20.43" transform="translate(-12.09 35.65) rotate(-45)"/><path class="cls-3" d="M49.08,48.81a14,14,0,0,1-5.85-1.69,47.4,47.4,0,0,1-12-9,47.55,47.55,0,0,1-9-12c-2.06-4.18-2.24-7.29-.54-9s4.82-1.52,9,.53a47.4,47.4,0,0,1,12,9,47.72,47.72,0,0,1,9,12c2.06,4.18,2.24,7.29.53,9h0A4.27,4.27,0,0,1,49.08,48.81ZM24.9,18.27a2.15,2.15,0,0,0-1.56.49c-.91.91-.55,3.38.95,6.43a45.58,45.58,0,0,0,8.56,11.36,45.27,45.27,0,0,0,11.36,8.56c3.06,1.5,5.52,1.87,6.43,1h0c.91-.91.55-3.38-1-6.43a45.27,45.27,0,0,0-8.55-11.36,45.51,45.51,0,0,0-11.36-8.56A12.14,12.14,0,0,0,24.9,18.27Z"/><path class="cls-5" d="M71.84,7.48S70.27,0,61.44,1.27c0,0-5.42.18-8.48,6.56,0,0-9.09-5.6-12.85,4.81,0,0-5.16-4.81-5.94,2.27,0,0-8.92-1.75-7.35,3.15,0,0-5.42-2.45-5.33,2,0,0-2.76,4.62,3.47,13.35,0,0,16.09,19.94,27,12.61,0,0,6.73-1.14,5.33-9.71,0,0,6-2.71,4.54-9.26,0,0,9.71-2.19,6.47-12.24C68.34,14.82,64.58,3.37,71.84,7.48Z"/><path class="cls-3" d="M46.6,48.77c-10.54,0-21.94-13.94-22.51-14.65-5.78-8.1-4.27-13-3.71-14.31a3.39,3.39,0,0,1,1.43-3,4.88,4.88,0,0,1,3.75-.37A3,3,0,0,1,26.27,15c1.55-1.74,5.05-1.57,7-1.32.4-1.88,1.22-3.06,2.45-3.51a4.62,4.62,0,0,1,3.94.75,9.27,9.27,0,0,1,5.25-5.21,10.52,10.52,0,0,1,7.6.67C55.69.71,60.63.2,61.33.16c9.71-1.41,11.58,7,11.6,7.09l.51,2.42L71.29,8.45c-1.4-.79-2.17-.84-2.4-.65-.78.64-.35,4,.52,6.67,1.08,3.39.93,6.33-.45,8.76a11,11,0,0,1-5.81,4.61A9.2,9.2,0,0,1,58.54,37c.9,7.86-4.79,9.78-6.09,10.12A10.6,10.6,0,0,1,46.6,48.77ZM23.92,18.5a1.66,1.66,0,0,0-.88.2c-.3.2-.44.65-.43,1.34v.32l-.17.28s-2.22,4.22,3.42,12.13c.12.14,15.53,19,25.51,12.33l.19-.14.24,0c.57-.1,5.59-1.22,4.42-8.42l-.14-.84.78-.36c.21-.09,5.17-2.44,3.91-8l-.24-1.1L61.63,26A9.29,9.29,0,0,0,67,22.11c1.06-1.86,1.14-4.2.26-6.95-.54-1.64-2.13-7.19.19-9.09a2.83,2.83,0,0,1,2.31-.55C68.65,3.75,66.3,1.68,61.6,2.38h-.13c-.19,0-4.8.28-7.5,5.92l-.54,1.12-1.06-.65s-3.56-2.13-6.77-1c-1.93.68-3.43,2.44-4.44,5.24l-.57,1.59-1.24-1.16c-.72-.66-2.14-1.52-2.89-1.24-.58.22-1,1.25-1.18,2.82l-.14,1.21L34,16c-1.93-.38-5.18-.5-6,.43-.08.09-.34.38-.05,1.27l.77,2.39-2.29-1A6.78,6.78,0,0,0,23.92,18.5Z"/><path class="cls-3" d="M59.6,15.07a1.12,1.12,0,0,1-1-.72c-.06-.15-1.37-3.31-6.07-5.51a1.11,1.11,0,0,1,.94-2c5.59,2.6,7.15,6.56,7.22,6.73A1.11,1.11,0,0,1,60,15,1.14,1.14,0,0,1,59.6,15.07Z"/><path class="cls-3" d="M56.86,23.49c-8.87,0-17.22-9.68-17.6-10.13a1.12,1.12,0,0,1,.13-1.58,1.11,1.11,0,0,1,1.57.13c.1.11,9.64,11.16,18.11,9.08a1.12,1.12,0,1,1,.54,2.17A11.3,11.3,0,0,1,56.86,23.49Z"/><path class="cls-3" d="M49.51,34.91a26.29,26.29,0,0,1-9.69-2c-13.84-5.5-18-14.33-18.21-14.71a1.12,1.12,0,0,1,2-.93c.06.12,4.09,8.43,17.06,13.59.17.07,12.5,5.55,18.52-2.68A1.12,1.12,0,1,1,61,29.47C57.93,33.71,53.51,34.91,49.51,34.91Z"/><path class="cls-3" d="M50,42a26.44,26.44,0,0,1-9-1.88,1.11,1.11,0,1,1,.85-2.06c.07,0,7.52,3,11.81,1A4.76,4.76,0,0,0,56.26,36a1.12,1.12,0,1,1,2.14.65,7,7,0,0,1-3.78,4.46A10.86,10.86,0,0,1,50,42Z"/><path class="cls-3" d="M50.14,29.25C39.49,29.25,27.5,16.34,27,15.75a1.12,1.12,0,0,1,1.65-1.51c.13.14,13.51,14.54,23.43,12.6A1.12,1.12,0,1,1,52.47,29,12,12,0,0,1,50.14,29.25Z"/><path class="cls-3" d="M55.18,25.83a30.15,30.15,0,0,1-3.67-.2,1.11,1.11,0,0,1-1-1.24,1.12,1.12,0,0,1,1.24-1c3.54.43,13,.5,14-4.2l.11-.28a9,9,0,0,0,.3-6.92,1.12,1.12,0,1,1,2.07-.84,11.12,11.12,0,0,1-.32,8.67C66.65,25,59.62,25.83,55.18,25.83Z"/><path class="cls-3" d="M56.37,10.43h-.13a1.13,1.13,0,0,1-1-1.24c.5-4.31,6.47-7.39,6.72-7.52a1.12,1.12,0,0,1,1,2c-1.43.73-5.21,3.19-5.51,5.77A1.12,1.12,0,0,1,56.37,10.43Z"/><path class="cls-3" d="M28.25,60.25a1.13,1.13,0,0,1-.92-.48c-4.76-6.84-6.14-20.46-6.2-21a1.12,1.12,0,1,1,2.23-.22c0,.13,1.38,13.61,5.81,20a1.12,1.12,0,0,1-.28,1.55A1.1,1.1,0,0,1,28.25,60.25Z"/><path class="cls-3" d="M22.36,65a1.14,1.14,0,0,1-1-.55A66.12,66.12,0,0,1,13,35.94a1.12,1.12,0,0,1,1.08-1.15,1.1,1.1,0,0,1,1.15,1.08c0,.15.55,14.61,8.12,27.45a1.11,1.11,0,0,1-.4,1.53A1,1,0,0,1,22.36,65Z"/><path class="cls-3" d="M13.86,68.52a1.1,1.1,0,0,1-.94-.52C8.1,60.43,5.4,46,5.28,45.4a1.12,1.12,0,1,1,2.2-.4c0,.14,2.74,14.6,7.32,21.8a1.13,1.13,0,0,1-.34,1.55A1.19,1.19,0,0,1,13.86,68.52Z"/><path class="cls-3" d="M43.43,16.75a1.13,1.13,0,0,1-1.07-1.44c.73-2.45,2-4.09,3.79-4.86a7.23,7.23,0,0,1,5.59.21,1.12,1.12,0,0,1-1,2h0A5,5,0,0,0,47,12.5,5.05,5.05,0,0,0,44.5,16,1.12,1.12,0,0,1,43.43,16.75Z"/><path class="cls-6" d="M47.79,23.54a1,1,0,0,1-.37-.07,17.33,17.33,0,0,1-4.57-2.63,1.12,1.12,0,0,1,1.36-1.78,15,15,0,0,0,3.95,2.3,1.12,1.12,0,0,1-.37,2.18Z"/><path class="cls-6" d="M41.32,19.2a1.08,1.08,0,0,1-.75-.3c-1.49-1.37-2.48-2.48-2.52-2.53a1.12,1.12,0,1,1,1.69-1.47s.95,1.08,2.34,2.36a1.12,1.12,0,0,1-.76,1.94Z"/><path class="cls-6" d="M4,54.7a1.12,1.12,0,0,1-.71-.25,1.13,1.13,0,0,1-.15-1.58l6.66-8.08a1.12,1.12,0,0,1,1.73,1.42L4.84,54.29A1.11,1.11,0,0,1,4,54.7Z"/><path class="cls-6" d="M15,41.28a1.13,1.13,0,0,1-.87-1.83l2.52-3.05a1.12,1.12,0,1,1,1.72,1.42l-2.51,3A1.11,1.11,0,0,1,15,41.28Z"/></g></g></g></svg>