<?xml version="1.0" encoding="iso-8859-1"?>
<!-- Generator: Adobe Illustrator 24.1.0, SVG Export Plug-In . SVG Version: 6.00 Build 0)  -->
<svg version="1.1" xmlns="http://www.w3.org/2000/svg" xmlns:xlink="http://www.w3.org/1999/xlink" x="0px" y="0px"
	 viewBox="0 0 512 512" style="enable-background:new 0 0 512 512;" xml:space="preserve">
<g id="_x33_29_x2C__Drink_x2C__Fruit_x2C__Juice_x2C__Orange_Juice">
	<g>
		<g>
			<path style="fill:#F88F19;" d="M383.08,161c-11.891,0-232.781,0-244.47,0c9.076,121.174,2.44,6.805,23.58,315
				c10.298,0,186.82,0,197.311,0C381.83,150.445,372.94,296.369,383.08,161z"/>
			<circle style="fill:#07CC66;" cx="449.5" cy="181" r="30"/>
			<circle style="fill:#07CC66;" cx="84.5" cy="276" r="25"/>
			<rect x="199.5" y="41" style="fill:#E9EFFF;" width="35" height="70"/>
			<path style="fill:#9BD8F9;" d="M389.94,111l-6.86,50H138.61l-4.11-50C145.006,111,385.78,111,389.94,111z"/>
			<path style="fill:#FAA71A;" d="M156.28,376h55.76c0,22.38-9.07,42.64-23.74,57.3L131,376H156.28z"/>
			<path style="fill:#FAA71A;" d="M131,376v81.04c-22.38,0-42.64-9.07-57.3-23.74L131,376z"/>
			<path style="fill:#FFD400;" d="M131,376l57.3,57.3c-14.66,14.67-34.92,23.74-57.3,23.74V376z"/>
			<path style="fill:#FFD400;" d="M131,376l-57.3,57.3c-14.67-14.66-23.74-34.92-23.74-57.3H131z"/>
			<path style="fill:#F06000;" d="M188.3,433.3c14.67-14.66,23.74-34.92,23.74-57.3h17.46c0,42.78-27.41,79.27-65.59,92.84
				c-10.3,3.67-21.37,5.66-32.91,5.66c-54.31,0-98.5-44.19-98.5-98.5h17.46c0,22.38,9.07,42.64,23.74,57.3
				c14.66,14.67,34.92,23.74,57.3,23.74S173.64,447.97,188.3,433.3z"/>
			<circle style="fill:#9BD8F9;" cx="427" cy="423.5" r="7.5"/>
			<circle style="fill:#9BD8F9;" cx="417" cy="51" r="7.5"/>
			<circle style="fill:#9BD8F9;" cx="412" cy="278.5" r="7.5"/>
			<circle style="fill:#9BD8F9;" cx="297" cy="68.5" r="7.5"/>
			<circle style="fill:#9BD8F9;" cx="107" cy="43.5" r="7.5"/>
			<circle style="fill:#9BD8F9;" cx="87" cy="198.5" r="7.5"/>
			<g>
				<path style="fill:#F06000;" d="M362.92,421H249.5c-2.761,0-5,2.238-5,5s2.239,5,5,5h113.095
					c0.233-3.381,0.463-6.708,0.688-9.964C363.161,421.027,363.044,421,362.92,421z"/>
			</g>
		</g>
	</g>
</g>
<g id="Layer_1">
</g>
</svg>
