<?xml version="1.0" encoding="UTF-8" standalone="no"?> <svg width="64" height="64" viewBox="0 0 64 64" fill="none" xmlns="http://www.w3.org/2000/svg">
<g clip-path="url(#clip0_410_16853)">
<path d="M46.5187 47.2924C52.4072 36.0372 50.4369 23.3847 42.1179 19.0323C33.7988 14.6798 22.2813 20.2756 16.3927 31.5308C10.5041 42.786 12.4744 55.4385 20.7935 59.7909C29.1125 64.1433 40.6301 58.5475 46.5187 47.2924Z" fill="#EB8F4D"/>
<path d="M46.5189 47.2916C50.6849 39.3296 50.8999 30.6826 47.7349 24.7546C40.1349 36.2336 26.9349 46.5546 29.6209 40.1186C31.8959 34.6626 33.6509 24.4846 34.0749 17.6816C27.4429 18.5166 20.5299 23.6236 16.3929 31.5296C10.5049 42.7846 12.4749 55.4376 20.7929 59.7896C29.1109 64.1416 40.6309 58.5466 46.5189 47.2916Z" fill="#EB8236"/>
<path d="M60.719 33.815C59.361 35.415 58.079 34.333 56.719 35.938C55.359 37.543 56.644 38.627 55.286 40.231C53.928 41.835 52.647 40.749 51.286 42.352C49.925 43.955 51.213 45.039 49.857 46.641C48.501 48.243 44.262 47.403 45.864 48.758L39 42.944C40.356 41.344 41.638 42.427 42.993 40.826C44.348 39.225 43.067 38.139 44.422 36.537C45.777 34.935 47.062 36.02 48.422 34.417C49.782 32.814 48.498 31.727 49.856 30.123C51.214 28.519 52.496 29.604 53.856 28L60.719 33.815Z" fill="#CC2B2B"/>
<path d="M49.8635 46.6415C51.2195 45.0415 49.9365 43.9545 51.2925 42.3525C52.6485 40.7505 53.9315 41.8345 55.2925 40.2315C56.6535 38.6285 55.3685 37.5425 56.7255 35.9375C58.0825 34.3325 59.3655 35.4195 60.7255 33.8155L57.6665 31.2305C56.3085 32.8305 55.0265 31.7495 53.6665 33.3535C52.3065 34.9575 53.5915 36.0435 52.2335 37.6475C50.8755 39.2515 49.5945 38.1655 48.2335 39.7685C46.8725 41.3715 48.1595 42.4555 46.8045 44.0565C45.4495 45.6575 44.1665 44.5725 42.8105 46.1745L45.8625 48.7575C44.2685 47.4005 48.5075 48.2425 49.8635 46.6415Z" fill="#CC5E3F"/>
<path d="M53.0129 6.80978C52.4631 6.3176 51.7871 5.98832 51.0606 5.85885C50.3341 5.72938 49.5859 5.80484 48.8999 6.07678C48.7578 5.48251 48.4812 4.92877 48.0915 4.45817C47.7018 3.98758 47.2092 3.61268 46.6518 3.36233C46.0945 3.11199 45.4871 2.99287 44.8764 3.01414C44.2657 3.03541 43.6681 3.19651 43.1295 3.48504C42.5909 3.77357 42.1256 4.18183 41.7696 4.67841C41.4135 5.17498 41.1762 5.74663 41.0758 6.34935C40.9753 6.95207 41.0146 7.5698 41.1904 8.15499C41.3662 8.74017 41.6739 9.27722 42.0899 9.72478C42.3724 10.0108 42.5587 10.3777 42.6228 10.7746C42.687 11.1714 42.6259 11.5783 42.4479 11.9388L39.2949 17.9638C41.217 18.4273 42.9973 19.3519 44.4819 20.6578L44.5819 20.7098L47.7639 14.7198C47.9587 14.3682 48.2582 14.0861 48.6208 13.9126C48.9833 13.7391 49.3909 13.6829 49.7869 13.7518C50.6368 13.8728 51.5031 13.7172 52.2578 13.3079C53.0124 12.8987 53.6153 12.2575 53.9775 11.4792C54.3396 10.7008 54.4418 9.8266 54.2688 8.98574C54.0958 8.14488 53.6569 7.38197 53.0169 6.80978H53.0129Z" fill="#F9E3D1"/>
<path d="M53.013 6.81041C52.913 6.71941 52.801 6.64441 52.693 6.56641C53.0221 7.35474 53.0856 8.22877 52.874 9.05641C52.6313 10.0136 52.044 10.8476 51.2245 11.3986C50.405 11.9496 49.411 12.1788 48.433 12.0424C48.037 11.9732 47.6293 12.0293 47.2667 12.2028C46.9041 12.3763 46.6046 12.6586 46.41 13.0104L44.5 16.0364C44.3681 16.2437 44.1959 16.4224 43.9936 16.5618C43.7913 16.7012 43.563 16.7986 43.3223 16.848C43.0816 16.8975 42.8335 16.898 42.5926 16.8496C42.3517 16.8013 42.1229 16.7049 41.92 16.5664C41.6234 16.3618 41.3163 16.1729 41 16.0004C40.82 15.9064 40.631 15.8384 40.448 15.7534L39.291 17.9644C41.2131 18.4279 42.9934 19.3525 44.478 20.6584L44.578 20.7104L47.76 14.7204C47.9548 14.3689 48.2543 14.0867 48.6169 13.9132C48.9794 13.7398 49.387 13.6835 49.783 13.7524C50.6329 13.8734 51.4992 13.7178 52.2538 13.3086C53.0085 12.8993 53.6114 12.2581 53.9736 11.4798C54.3357 10.7014 54.4379 9.82723 54.2649 8.98636C54.0919 8.1455 53.653 7.38259 53.013 6.81041V6.81041Z" fill="#F9DAC0"/>
<path d="M22.2313 3.38618C21.9383 3.31618 21.6413 3.25518 21.3383 3.20218C19.0052 2.8073 16.6101 3.01021 14.3767 3.79195C12.1434 4.57369 10.1446 5.90875 8.56706 7.67243C6.98955 9.4361 5.8848 11.5708 5.35601 13.8772C4.82722 16.1836 4.89164 18.5864 5.54326 20.8612C6.41526 23.8902 8.64326 25.9882 9.22026 29.1182C10.0838 32.9917 10.238 36.9897 9.67526 40.9182C9.18226 43.5922 8.60126 46.9182 11.9203 47.9432L18.6993 49.4162C19.4353 49.6426 20.2216 49.6486 20.961 49.4334C21.7004 49.2182 22.3607 48.7912 22.8603 48.2052C23.9703 46.8922 24.3973 44.9632 24.9943 43.3802C25.8943 40.9802 26.7243 38.5612 27.6313 36.1662C29.6274 30.7846 31.123 25.2304 32.0993 19.5742C32.5985 17.2179 32.4847 14.7728 31.7688 12.4731C31.0529 10.1733 29.7588 8.09575 28.0103 6.43918C26.377 4.94367 24.3871 3.89245 22.2313 3.38618V3.38618Z" fill="#F9E3D1"/>
<path d="M19.8549 47.59C19.6634 47.5903 19.4729 47.5617 19.2899 47.505L19.2079 47.479L12.4389 46.006C11.2809 45.621 10.9929 44.806 11.6439 41.278C12.2508 37.1118 12.0966 32.8701 11.1889 28.759C10.7787 26.9332 10.0506 25.1937 9.03791 23.62C8.38305 22.5831 7.85558 21.4711 7.46691 20.308C6.95465 18.5217 6.86423 16.6409 7.2028 14.8137C7.54136 12.9865 8.29965 11.2629 9.4179 9.77878C10.5362 8.29463 11.9838 7.09046 13.6468 6.26118C15.3098 5.43189 17.1426 5.00016 19.0009 5C19.6713 5.00007 20.3405 5.05795 21.0009 5.173C21.2609 5.21767 21.5176 5.27033 21.7709 5.331C23.6001 5.75491 25.2883 6.64551 26.6709 7.916C28.1717 9.34374 29.2792 11.1341 29.8867 13.1145C30.4941 15.0948 30.581 17.1983 30.1389 19.222C29.1868 24.7582 27.7211 30.1936 25.7609 35.458C25.2889 36.701 24.8399 37.952 24.3899 39.203C23.9739 40.363 23.5569 41.522 23.1219 42.675C22.9689 43.082 22.8219 43.511 22.6799 43.947C22.4046 45.0065 21.9486 46.0106 21.3319 46.915C21.1498 47.1284 20.9233 47.2994 20.6681 47.416C20.413 47.5326 20.1354 47.592 19.8549 47.59V47.59Z" fill="#CC2B2B"/>
<path d="M3 47H61V51C61 53.9174 59.8411 56.7153 57.7782 58.7782C55.7153 60.8411 52.9174 62 50 62H14C11.0826 62 8.28473 60.8411 6.22183 58.7782C4.15893 56.7153 3 53.9174 3 51V47Z" fill="#F2E4DA"/>
<path d="M50 60H14C11.0826 60 8.28473 58.8411 6.22183 56.7782C4.15893 54.7153 3 51.9174 3 49V51C3 53.9174 4.15893 56.7153 6.22183 58.7782C8.28473 60.8411 11.0826 62 14 62H50C52.9174 62 55.7153 60.8411 57.7782 58.7782C59.8411 56.7153 61 53.9174 61 51V49C61 51.9174 59.8411 54.7153 57.7782 56.7782C55.7153 58.8411 52.9174 60 50 60V60Z" fill="#F2DBCB"/>
<path d="M15.0274 19.445C14.8084 19.445 14.5955 19.3731 14.4214 19.2404C14.2472 19.1077 14.1214 18.9216 14.0632 18.7105C14.0051 18.4994 14.0179 18.2751 14.0995 18.0719C14.1812 17.8688 14.3273 17.6981 14.5154 17.586L22.2694 12.963C22.4973 12.8273 22.7698 12.7877 23.0269 12.853C23.2841 12.9183 23.5047 13.083 23.6404 13.311C23.776 13.5389 23.8156 13.8114 23.7503 14.0685C23.685 14.3256 23.5203 14.5463 23.2924 14.682L15.5384 19.305C15.3837 19.3967 15.2072 19.4451 15.0274 19.445V19.445Z" fill="#F9E3D1"/>
<path d="M15.0274 27.7721C14.8084 27.7721 14.5955 27.7002 14.4214 27.5675C14.2472 27.4349 14.1214 27.2487 14.0632 27.0376C14.0051 26.8265 14.0179 26.6022 14.0995 26.399C14.1812 26.1959 14.3273 26.0252 14.5154 25.9131L22.2694 21.2911C22.3822 21.2239 22.5072 21.1796 22.6372 21.1608C22.7672 21.1419 22.8996 21.1488 23.0269 21.1811C23.1543 21.2134 23.2739 21.2705 23.3792 21.3491C23.4845 21.4277 23.5732 21.5262 23.6404 21.6391C23.7075 21.7519 23.7518 21.8769 23.7707 22.0069C23.7895 22.1369 23.7826 22.2693 23.7503 22.3967C23.718 22.524 23.6609 22.6437 23.5823 22.7489C23.5038 22.8542 23.4052 22.9429 23.2924 23.0101L15.5384 27.6321C15.3839 27.7243 15.2073 27.7727 15.0274 27.7721V27.7721Z" fill="#F9E3D1"/>
<path d="M15.0271 36.1002C14.8078 36.1006 14.5945 36.0289 14.42 35.8962C14.2455 35.7635 14.1194 35.577 14.0613 35.3656C14.0031 35.1543 14.016 34.9296 14.098 34.7262C14.18 34.5229 14.3265 34.3521 14.5151 34.2403L22.2691 29.6173C22.4971 29.4816 22.7696 29.442 23.0267 29.5073C23.2838 29.5726 23.5044 29.7373 23.6401 29.9653C23.7758 30.1932 23.8153 30.4657 23.75 30.7228C23.6848 30.9799 23.5201 31.2006 23.2921 31.3363L15.5381 35.9593C15.3837 36.0518 15.2071 36.1005 15.0271 36.1002V36.1002Z" fill="#F9E3D1"/>
<path d="M15.0271 44.4303C14.8078 44.4307 14.5945 44.359 14.42 44.2263C14.2455 44.0935 14.1194 43.9071 14.0613 43.6957C14.0031 43.4843 14.016 43.2597 14.098 43.0563C14.18 42.853 14.3265 42.6822 14.5151 42.5703L22.2691 37.9473C22.4971 37.8117 22.7696 37.7721 23.0267 37.8374C23.2838 37.9026 23.5044 38.0674 23.6401 38.2953C23.7758 38.5233 23.8153 38.7958 23.75 39.0529C23.6848 39.31 23.5201 39.5307 23.2921 39.6663L15.5381 44.2893C15.3837 44.3819 15.2071 44.4306 15.0271 44.4303V44.4303Z" fill="#F9E3D1"/>
<path d="M37 59C40.3137 59 43 55.4183 43 51C43 46.5817 40.3137 43 37 43C33.6863 43 31 46.5817 31 51C31 55.4183 33.6863 59 37 59Z" fill="#F9BB8B"/>
<path d="M53 59C56.3137 59 59 55.4183 59 51C59 46.5817 56.3137 43 53 43C49.6863 43 47 46.5817 47 51C47 55.4183 49.6863 59 53 59Z" fill="#F9BB8B"/>
<path d="M47.877 61.141C47.9109 61.3794 48.0298 61.5975 48.2116 61.7553C48.3935 61.9131 48.6262 62 48.867 62H57.133C57.3738 62 57.6065 61.9131 57.7884 61.7553C57.9702 61.5975 58.0891 61.3794 58.123 61.141L59 55H47L47.877 61.141Z" fill="#C7A07D"/>
<path d="M42.123 61.141L43 55H31L31.877 61.141C31.911 61.3794 32.0298 61.5975 32.2116 61.7553C32.3935 61.9131 32.6262 62 32.867 62H41.133C41.3738 62 41.6065 61.9131 41.7884 61.7553C41.9702 61.5975 42.0891 61.3794 42.123 61.141Z" fill="#C7A07D"/>
<path d="M61 51H29C28.4477 51 28 51.4477 28 52V54C28 54.5523 28.4477 55 29 55H61C61.5523 55 62 54.5523 62 54V52C62 51.4477 61.5523 51 61 51Z" fill="#C7A07D"/>
<path d="M42.714 57L43 55H31L31.286 57H42.714Z" fill="#B59272"/>
<path d="M58.714 57L59 55H47L47.286 57H58.714Z" fill="#B59272"/>
<path d="M39.6615 47.9478C40.1718 47.7365 40.3285 46.9447 40.0116 46.1793C39.6946 45.4139 39.024 44.9647 38.5138 45.176C38.0035 45.3873 37.8468 46.1791 38.1637 46.9445C38.4807 47.7099 39.1513 48.1591 39.6615 47.9478Z" fill="#F9C8A2"/>
<path d="M55.4857 47.9478C55.996 47.7365 56.1527 46.9447 55.8358 46.1793C55.5188 45.4139 54.8482 44.9647 54.338 45.176C53.8277 45.3873 53.671 46.1791 53.9879 46.9445C54.3049 47.7099 54.9755 48.1591 55.4857 47.9478Z" fill="#F9C8A2"/>
<path d="M16.9992 59.0001C10.7252 59.0001 6.86419 55.8491 6.12919 50.1271C6.09551 49.864 6.16772 49.5983 6.32994 49.3885C6.49216 49.1786 6.7311 49.0418 6.99419 49.0081C7.25729 48.9744 7.52299 49.0466 7.73284 49.2088C7.94269 49.3711 8.07951 49.61 8.11319 49.8731C8.72119 54.6001 11.7102 57.0001 16.9992 57.0001C17.2644 57.0001 17.5188 57.1055 17.7063 57.293C17.8938 57.4805 17.9992 57.7349 17.9992 58.0001C17.9992 58.2653 17.8938 58.5197 17.7063 58.7072C17.5188 58.8947 17.2644 59.0001 16.9992 59.0001Z" fill="#F2DBCB"/>
<path d="M22 59H21C20.7348 59 20.4804 58.8946 20.2929 58.7071C20.1054 58.5196 20 58.2652 20 58C20 57.7348 20.1054 57.4804 20.2929 57.2929C20.4804 57.1054 20.7348 57 21 57H22C22.2652 57 22.5196 57.1054 22.7071 57.2929C22.8946 57.4804 23 57.7348 23 58C23 58.2652 22.8946 58.5196 22.7071 58.7071C22.5196 58.8946 22.2652 59 22 59Z" fill="#F2DBCB"/>
</g>
<defs>
<clipPath id="clip0_410_16853">
<rect width="64" height="64" fill="white"/>
</clipPath>
</defs>
</svg>
