<?xml version="1.0" encoding="UTF-8" standalone="no"?> <svg xmlns="http://www.w3.org/2000/svg" viewBox="0 0 64 64"><g id="Layer_4" data-name="Layer 4"><path d="M37.142,36.5a11.5,11.5,0,0,1-.646-1.642l-.562-1.826L42.156,27h7.278a12.732,12.732,0,0,1,3.085.38h0a12.721,12.721,0,0,1,8.827,7.875L62,37h0a20.476,20.476,0,0,1-9.085,5.275Z" style="fill:#a83931"/><path d="M54.023,40.1l1.165,1.4A20.477,20.477,0,0,0,62,37l-.654-1.745A12.724,12.724,0,0,0,49.434,27H42.156l-6.222,6.036.494,1.6a16.878,16.878,0,0,1,17.6,5.463Z" style="fill:#c6483c"/><path d="M40.438,29.171l-.5-.017-1.971,1.912,1.7.056.632.045a48.027,48.027,0,0,1,20.939,6.55c.259-.234.517-.469.765-.717l-.544-1.451A50.044,50.044,0,0,0,40.438,29.171Z" style="fill:#a83931"/><path d="M23,48.724h0a3.526,3.526,0,0,1,.285-1.389h0a16.982,16.982,0,0,1,9.077-8.986l2.876-1.2A14.954,14.954,0,0,1,40.992,36h0a14.96,14.96,0,0,1,11.494,5.383L53,42h0A18.355,18.355,0,0,1,39.871,54.532L35.212,55.7a10.156,10.156,0,0,1-2.461.3h0a10.145,10.145,0,0,1-7.793-3.65l-1.141-1.369A3.528,3.528,0,0,1,23,48.724Z" style="fill:#aa4934"/><path d="M37.211,53.7l4.66-1.165a18.326,18.326,0,0,0,7.461-3.848A18.339,18.339,0,0,0,53,42l-.514-.617a14.961,14.961,0,0,0-17.248-4.232l-2.876,1.2a16.974,16.974,0,0,0-4.474,2.76,16.967,16.967,0,0,0-2.6,4.226h0a3.526,3.526,0,0,0,.532,3.646l1.141,1.369A10.143,10.143,0,0,0,37.211,53.7Z" style="fill:#db5b4a"/><path d="M6.742,28.258h0A16.19,16.19,0,0,0,2,39.706H2A9.294,9.294,0,0,0,11.294,49h0a9.292,9.292,0,0,0,4.989-1.453L19.664,45.4A17.812,17.812,0,0,0,27,36h0l5.1-1.39a16.928,16.928,0,0,0,9.412-6.623h0A19.313,19.313,0,0,0,45,16.912h0a19.344,19.344,0,0,0-.375-3.787L44,10,40.4,8.8A15.62,15.62,0,0,0,35.467,8h0a15.613,15.613,0,0,0-11.04,4.573h0a18.713,18.713,0,0,0-4.759,8.088h0a4.087,4.087,0,0,1-3.043,2.867L14.5,24A15.813,15.813,0,0,0,6.742,28.258Z" style="fill:#a17767"/><path d="M44.625,13.125,44,10l-2.6-.868a15.409,15.409,0,0,0-12.97,4.441h0a18.713,18.713,0,0,0-4.759,8.088,4.085,4.085,0,0,1-3.043,2.867L18.5,25a15.823,15.823,0,0,0-7.756,4.258A16.19,16.19,0,0,0,6,40.706a9.285,9.285,0,0,0,5.1,8.284c.066,0,.131.01.2.01h0a9.292,9.292,0,0,0,4.989-1.453L19.664,45.4A17.818,17.818,0,0,0,27,36l5.1-1.39a16.928,16.928,0,0,0,9.412-6.623,19.312,19.312,0,0,0,3.116-14.862Z" style="fill:#bd9279"/><path d="M44.2,11,44,10l-2.108-.7a30.231,30.231,0,0,0-10.563,4,24.523,24.523,0,0,1-2.1-3.923l-.02-.051a15.586,15.586,0,0,0-1.776.925A26.73,26.73,0,0,0,29.665,14.4a30.125,30.125,0,0,0-5.788,5.383,24.924,24.924,0,0,1-1.465-3.619l-.251-.849a18.826,18.826,0,0,0-1.346,2.354,27.275,27.275,0,0,0,1.721,3.857,30.57,30.57,0,0,0-2.244,3.656,26.95,26.95,0,0,0-6.882,3.591A24.759,24.759,0,0,1,11.691,25l-.027-.073a15.835,15.835,0,0,0-1.789.912,26.669,26.669,0,0,0,1.946,4.184A26.584,26.584,0,0,0,5.6,37.671a24.774,24.774,0,0,1-1.929-3.315l-.42-.877a16.243,16.243,0,0,0-.862,2.769,27.159,27.159,0,0,0,2.209,3.48c-.268.611-.522,1.231-.747,1.867l-.826,2.333a9.31,9.31,0,0,0,1.405,2.025l1.307-3.692c.091-.258.2-.509.293-.762a26.652,26.652,0,0,0,3.607,3.372A33.36,33.36,0,0,1,5.91,46.579L5.3,46.8a9.291,9.291,0,0,0,2.075,1.322,35.281,35.281,0,0,0,4.062-1.966,27.034,27.034,0,0,0,3.721,2,9.259,9.259,0,0,0,1.125-.609l1.011-.643-.66-.263a24.9,24.9,0,0,1-3.265-1.66,35.132,35.132,0,0,0,6.893-5.954A26.8,26.8,0,0,0,24.231,41.2a17.911,17.911,0,0,0,1.132-1.682l-.137-.054a24.508,24.508,0,0,1-3.676-1.981,34.884,34.884,0,0,0,3.142-4.673l2-.712a24.305,24.305,0,0,0,3.678-1.681,27.042,27.042,0,0,0,5.067,2.868A16.771,16.771,0,0,0,37.548,32l-.641-.245a24.948,24.948,0,0,1-4.693-2.473,24.014,24.014,0,0,0,6.363-6.423A26.652,26.652,0,0,0,43.212,25a19.534,19.534,0,0,0,.744-1.857l-.01,0a24.673,24.673,0,0,1-4.32-1.988,24.141,24.141,0,0,0,2.344-5.906l-1.94-.486a22.18,22.18,0,0,1-2.095,5.321,24.868,24.868,0,0,1-5.441-5.141,28.247,28.247,0,0,1,11.162-3.886ZM11.533,43.773a24.674,24.674,0,0,1-4.607-4.327,24.675,24.675,0,0,1,5.96-7.709,26.922,26.922,0,0,0,5.733,6.115A33.147,33.147,0,0,1,11.533,43.773ZM26.015,30.218l-2.351.84a1.007,1.007,0,0,0-.542.463,32.993,32.993,0,0,1-3.2,4.811,24.907,24.907,0,0,1-5.459-5.841,24.945,24.945,0,0,1,6.855-3.542,1,1,0,0,0,.579-.5,28.379,28.379,0,0,1,1.758-3.033,26.6,26.6,0,0,0,4.992,5.666A22.238,22.238,0,0,1,26.015,30.218Zm10.871-8.43A22.028,22.028,0,0,1,30.5,28.011a24.6,24.6,0,0,1-5.575-6.341,28.2,28.2,0,0,1,5.894-5.639A26.861,26.861,0,0,0,36.886,21.788Z" style="fill:#8f6659"/><path d="M52.486,41.383c-.259-.311-.542-.6-.823-.883l-.918-.306a23.267,23.267,0,0,0-19.69,2.343l-7.793,4.87a3.416,3.416,0,0,0-.079,2.415l.347-.224,8.584-5.365a21.271,21.271,0,0,1,18-2.142l2.516.837.053.021c.113-.313.223-.628.319-.949Z" style="fill:#aa4934"/></g></svg>