<?xml version="1.0" encoding="UTF-8" standalone="no"?> <svg width="64" height="64" viewBox="0 0 64 64" fill="none" xmlns="http://www.w3.org/2000/svg">
<path d="M47 30H17V48H47V30Z" fill="#FF7956"/>
<path d="M37 11H26C25.4701 10.9984 24.9623 10.7872 24.5875 10.4125C24.2128 10.0377 24.0016 9.52995 24 9V5C24.0016 4.47005 24.2128 3.96227 24.5875 3.58753C24.9623 3.2128 25.4701 3.00158 26 3H38C38.5299 3.00158 39.0377 3.2128 39.4125 3.58753C39.7872 3.96227 39.9984 4.47005 40 5V9C39.9984 9.52995 39.7872 10.0377 39.4125 10.4125C39.0377 10.7872 38.5299 10.9984 38 11H37Z" fill="#ACABB1"/>
<path d="M41 34H23C22.4477 34 22 34.4477 22 35V43C22 43.5523 22.4477 44 23 44H41C41.5523 44 42 43.5523 42 43V35C42 34.4477 41.5523 34 41 34Z" fill="#E6E7E8"/>
<path d="M47 23.06V24H17V23.06C17 21.8612 17.3592 20.6899 18.0312 19.6971C18.7031 18.7043 19.6571 17.9356 20.77 17.49L27 15V11H37V15L43.23 17.49C44.3429 17.9356 45.2969 18.7043 45.9688 19.6971C46.6408 20.6899 47 21.8612 47 23.06V23.06Z" fill="#FFB655"/>
<path d="M47 48H17C15.8954 48 15 48.8954 15 50V52C15 53.1046 15.8954 54 17 54H47C48.1046 54 49 53.1046 49 52V50C49 48.8954 48.1046 48 47 48Z" fill="#FFA733"/>
<path d="M47 54V57C47 58.0609 46.5786 59.0783 45.8284 59.8284C45.0783 60.5786 44.0609 61 43 61H21C19.9391 61 18.9217 60.5786 18.1716 59.8284C17.4214 59.0783 17 58.0609 17 57V54H47Z" fill="#FFB655"/>
<path d="M47 24H17C15.8954 24 15 24.8954 15 26V28C15 29.1046 15.8954 30 17 30H47C48.1046 30 49 29.1046 49 28V26C49 24.8954 48.1046 24 47 24Z" fill="#FFA733"/>
<path d="M37 11H27V13H37V11Z" fill="#FFA733"/>
<path d="M33 6H31V8H33V6Z" fill="#C6C5CA"/>
<path d="M37 6H35V8H37V6Z" fill="#C6C5CA"/>
<path d="M29 6H27V8H29V6Z" fill="#C6C5CA"/>
</svg>
