<?xml version="1.0" encoding="UTF-8" standalone="no"?> <svg xmlns="http://www.w3.org/2000/svg" width="68.516" height="69.02" viewBox="0 0 68.516 69.02">
  <g id="Group_2767" data-name="Group 2767" transform="translate(-62.004 -1510.886)">
    <g id="Group_2762" data-name="Group 2762">
      <g id="Group_2761" data-name="Group 2761">
        <path id="Path_619" data-name="Path 619" d="M123.869,1534.56a1.5,1.5,0,0,1-1.5,1.5H70.155a1.5,1.5,0,0,1-1.5-1.5l.749-7.995a1.5,1.5,0,0,1,1.5-1.5H121.62a1.5,1.5,0,0,1,1.5,1.5Z" fill="#bd7575"/>
      </g>
    </g>
    <g id="Group_2764" data-name="Group 2764">
      <g id="Group_2763" data-name="Group 2763">
        <path id="Path_620" data-name="Path 620" d="M119.59,1536.06l4.476,33.456h0s4.241,2.231,5.6,6.34c0,0,2.374,2.7-.765,2.348a269.647,269.647,0,0,1-32.633,1.7,269.65,269.65,0,0,1-32.632-1.7c-3.14.353-.765-2.348-.765-2.348,1.358-4.108,5.6-6.34,5.6-6.34h0l4.476-33.456Z" fill="#9c4d4d"/>
      </g>
    </g>
    <g id="Group_2766" data-name="Group 2766">
      <g id="Group_2765" data-name="Group 2765">
        <path id="Path_621" data-name="Path 621" d="M73.483,1523.23H120.54c-1.217-4.23-4.922-6.8-8.269-6.8a11.977,11.977,0,0,0-4.692.908c-.753-3.648-5.052-6.449-10.257-6.449a12.377,12.377,0,0,0-7.6,2.427,7.922,7.922,0,0,0-3.271-.709,7.689,7.689,0,0,0-7.786,7.588c0,.054.007.1.008.158A8.924,8.924,0,0,0,73.483,1523.23Z" fill="#fcc24c"/>
      </g>
    </g>
  </g>
</svg>
