<?xml version="1.0" encoding="UTF-8" standalone="no"?> <svg class="svg-icon" style="width: 1.150390625em; height: 1em;vertical-align: middle;fill: currentColor;overflow: hidden;" viewBox="0 0 1178 1024" version="1.1" xmlns="http://www.w3.org/2000/svg"><path d="M974.623937 196.075677a20.133127 20.133127 0 0 1-14.823588-6.54933c-30.320975-33.016173-75.586821-38.339188-76.031529-38.379616a20.220721 20.220721 0 0 1 4.042797-40.239303c2.466106 0.242568 60.64195 6.481951 101.838047 51.289613a20.213983 20.213983 0 0 1-14.823587 33.878636z" fill="#6D2F2E" /><path d="M479.017497 16.602459a47.920616 47.920616 0 0 0-23.960308 6.401094 48.190136 48.190136 0 0 0-72.190872 41.775566c0 34.269439 50.481054 77.608219 72.16392 77.608219 23.192177 0 72.150444-44.362955 72.150444-77.608219a48.190136 48.190136 0 0 0-48.163184-48.17666zM615.057604 0.00004a23.892928 23.892928 0 0 0-11.980154 3.19381 24.095068 24.095068 0 0 0-36.075222 20.901258c0 17.127982 25.227051 38.797372 36.075222 38.797372 11.58935 0 36.075222-22.181478 36.075222-38.797372A24.081592 24.081592 0 0 0 615.057604 0.00004z" fill="#E65257" /><path d="M1074.642725 566.517133v80.033897c0 197.288476-159.933035 357.234987-357.234986 357.234987H309.732126a28.82514 28.82514 0 0 1-28.82514-28.82514V238.107286a28.82514 28.82514 0 0 1 28.82514-28.82514h407.675613c185.335274 0 337.708279 141.134031 355.496584 321.793136q1.724927 17.491833 1.738402 35.441851z" fill="#D33D3D" /><path d="M1072.904323 531.04833c-17.801781 180.672582-170.16131 321.806612-355.496584 321.806612H309.732126a28.82514 28.82514 0 0 1-28.82514-28.82514V238.107286a28.82514 28.82514 0 0 1 28.82514-28.82514h407.675613c185.335274 0 337.708279 141.187934 355.496584 321.766184z" fill="#E0504D" /><path d="M717.407739 1024H309.732126c-27.046309 0-49.039123-23.44822-49.039123-52.259884V241.314572c0-28.82514 21.992814-52.27336 49.039123-52.273361h407.675613c95.67952 0 187.046724 39.686787 257.067962 111.756375 69.118346 71.126269 111.419475 167.425685 119.100789 271.163846a20.213983 20.213983 0 1 1-40.320159 2.978194C1038.917879 381.249239 891.39623 229.496129 717.407739 229.496129H309.732126c-4.595312 0-8.611157 5.538631-8.611157 11.845395v730.37164c0 6.306763 4.042797 11.831918 8.611157 11.831918h407.675613c89.615325 0 173.988491-38.945608 237.568206-109.654121 45.966598-51.127901 77.608219-115.327512 91.501964-185.672173a20.213983 20.213983 0 0 1 39.659835 7.829549c-15.295247 77.500411-50.265438 148.330209-101.069916 204.835029-71.368837 79.414002-166.428461 123.116634-267.660089 123.116634z" fill="#6D2F2E" /><path d="M541.613465 606.513868c0 75.586821-13.853316 146.254906-37.921432 206.41172-45.818362 114.438097-128.412697 190.846953-222.785047 190.846953C136.929522 1003.786017 20.213983 825.929917 20.213983 606.513868c0-143.101525 49.659019-268.536028 124.154285-338.462935 39.713739-37.274585 86.47542-58.782263 136.538718-58.782263 143.99094 0.013476 260.706479 177.869576 260.706479 397.245198z" fill="#EF5448" /><path d="M541.613465 606.513868c0 75.586821-13.853316 146.254906-37.921432 206.41172-39.713739 37.288061-86.47542 58.782263-136.538719 58.782263-143.977464 0-260.693003-177.883052-260.693003-397.258674 0-75.586821 13.853316-146.24143 37.907957-206.398244 39.713739-37.274585 86.47542-58.782263 136.538718-58.782263 143.99094 0.013476 260.706479 177.869576 260.706479 397.245198z" fill="#F76C5B" /><path d="M280.906986 1024c-39.080367 0-76.961372-11.58935-112.430174-34.444627-33.420452-21.561582-63.337147-52.179029-88.806766-91.030305C28.2861 820.229574 0 716.59922 0 606.54082s28.299576-213.70223 79.670046-291.997725c25.496571-38.851276 55.386314-69.482198 88.806766-91.030305 35.468802-22.909181 73.282427-34.444627 112.430174-34.444627s76.961372 11.58935 112.430175 34.444627c33.433928 21.561582 63.337147 52.179029 88.806766 91.030305 51.383945 78.295495 79.670046 181.993228 79.670045 291.997725s-28.299576 213.688754-79.670045 291.984248c-25.496571 38.851276-55.372838 69.482198-88.806766 91.030305-35.468802 22.855277-73.282427 34.444627-112.430175 34.444627z m0-794.503871c-62.595968 0-122.065506 38.083144-167.43916 107.228443C66.301865 408.497688 40.427966 504.325445 40.427966 606.54082s25.941278 198.097035 73.03986 269.802771c45.373654 69.145298 104.843193 107.228443 167.43916 107.228443s122.065506-38.083144 167.439161-107.228443c47.165961-71.773116 73.039859-167.600872 73.039859-269.802771s-25.941278-198.097035-73.039859-269.816248c-45.373654-69.145298-104.843193-107.228443-167.439161-107.228443z" fill="#6D2F2E" /><path d="M188.502131 491.469351m-58.593599 0a58.593599 58.593599 0 1 0 117.187198 0 58.593599 58.593599 0 1 0-117.187198 0Z" fill="#FFFFFF" /><path d="M188.502131 560.169942a68.727543 68.727543 0 1 1 68.727543-68.727543 68.727543 68.727543 0 0 1-68.727543 68.727543z m0-117.241102a48.51356 48.51356 0 1 0 48.51356 48.513559 48.51356 48.51356 0 0 0-48.51356-48.459655z" fill="#6D2F2E" /><path d="M179.149795 482.117015m9.06934 0l0.565992 0q9.06934 0 9.06934 9.069341l0 0.565991q0 9.06934-9.06934 9.069341l-0.565992 0q-9.06934 0-9.06934-9.069341l0-0.565991q0-9.06934 9.06934-9.069341Z" fill="#6D2F2E" /><path d="M351.628975 491.469351m-58.593599 0a58.593599 58.593599 0 1 0 117.187199 0 58.593599 58.593599 0 1 0-117.187199 0Z" fill="#FFFFFF" /><path d="M351.628975 560.169942a68.727543 68.727543 0 1 1 68.727543-68.727543 68.727543 68.727543 0 0 1-68.727543 68.727543z m0-117.241102a48.51356 48.51356 0 1 0 48.51356 48.513559 48.51356 48.51356 0 0 0-48.51356-48.459655z" fill="#6D2F2E" /><path d="M342.276639 482.117015m9.069341 0l0.565991 0q9.06934 0 9.069341 9.069341l0 0.565991q0 9.06934-9.069341 9.069341l-0.565991 0q-9.06934 0-9.069341-9.069341l0-0.565991q0-9.06934 9.069341-9.069341Z" fill="#6D2F2E" /><path d="M302.010385 733.336398a131.283083 131.283083 0 0 1-53.62096-11.333307 10.112382 10.112382 0 0 1 8.260781-18.462104 111.082576 111.082576 0 0 0 45.414083 9.594904 112.457126 112.457126 0 0 0 21.211206-2.007923 111.850707 111.850707 0 0 0 77.972071-58.229747 10.137986 10.137986 0 1 1 18.003921 9.325384 131.781694 131.781694 0 0 1-117.241102 71.112793z" fill="#6D2F2E" /><path d="M388.660992 687.113756a121.553419 121.553419 0 0 1-63.471907 33.946016 36.654689 36.654689 0 0 1-2.021398-3.813705l-19.243712-42.32808a36.129126 36.129126 0 0 1 17.896113-47.718477 35.738322 35.738322 0 0 1 14.823588-3.220761 36.169554 36.169554 0 0 1 32.908364 21.116874z" fill="#FF928A" /><path d="M325.189085 731.153288a10.133944 10.133944 0 0 1-8.624633-4.83788 46.370877 46.370877 0 0 1-2.587389-4.878308l-19.257188-42.341557a46.155262 46.155262 0 0 1 41.923801-65.250738 46.303497 46.303497 0 0 1 42.098989 27.04631l19.108952 42.031609a10.093516 10.093516 0 0 1-2.007923 11.292879 131.107895 131.107895 0 0 1-68.727542 36.749021 10.201324 10.201324 0 0 1-1.927067 0.188664z m11.454591-97.027119a25.604379 25.604379 0 0 0-10.646031 2.31787 26.03561 26.03561 0 0 0-12.883046 34.350295l17.599642 38.689564a110.678296 110.678296 0 0 0 45.818362-24.674536l-16.171187-35.482278a26.062562 26.062562 0 0 0-23.71774-15.268295z" fill="#6D2F2E" /><path d="M1129.274384 740.38434l-62.95982-48.217088a440.893925 440.893925 0 0 0 8.328161-85.653384q0-16.710226-1.226315-33.070077l8.853725-7.35789 51.073998-42.691932s20.483503 41.627329 24.05464 96.245512c2.425678 37.247633-2.99167 80.519033-28.124389 120.744859z" fill="#D33D3D" /><path d="M1157.371821 619.639481a182.774836 182.774836 0 0 1-18.664245 39.888926l-62.95982-48.217087a434.883634 434.883634 0 0 0 6.522379-45.225419l51.073998-42.691932s20.456551 41.627329 24.027688 96.245512z" fill="#E0504D" /><path d="M1129.274384 760.598323a20.213983 20.213983 0 0 1-12.290102-4.16408l-63.013723-48.217088a20.213983 20.213983 0 0 1-7.546554-19.971416 421.879305 421.879305 0 0 0 7.950833-81.704919c0-10.457367-0.40428-21.089922-1.172411-31.574242a20.213983 20.213983 0 0 1 7.250082-16.96627l59.90077-50.09025a20.213983 20.213983 0 0 1 31.102582 6.589758c0.646847 1.347599 15.901667 32.679273 23.043941 77.0018 9.594904 59.658202-0.107808 114.855852-28.08396 159.623087a20.213983 20.213983 0 0 1-17.141458 9.500572z m-40.859198-76.961372l34.282915 26.23775c25.793043-57.838944 12.788713-119.626352 2.007923-152.898568L1094.250289 582.4188c0.417756 8.085593 0.633371 16.171187 0.633372 24.12202a463.493158 463.493158 0 0 1-6.468475 77.096131z" fill="#6D2F2E" /><path d="M693.999946 299.261323h-167.102261a10.106992 10.106992 0 0 1 0-20.213983h167.102261a10.106992 10.106992 0 0 1 0 20.213983zM802.252564 298.318004h-51.208757a10.106992 10.106992 0 0 1 0-20.213983h51.208757a10.106992 10.106992 0 0 1 0 20.213983z" fill="#FFFFFF" /></svg>