<?xml version="1.0" encoding="utf-8"?>
<!-- Generator: Adobe Illustrator 25.4.1, SVG Export Plug-In . SVG Version: 6.00 Build 0)  -->
<svg version="1.1" id="flat" xmlns="http://www.w3.org/2000/svg" xmlns:xlink="http://www.w3.org/1999/xlink" x="0px" y="0px"
	 viewBox="0 0 512 512" enable-background="new 0 0 512 512" xml:space="preserve">
<path fill="#97814C" d="M371.723,283.693l39.354-22.118c5.244-2.947,11.602,1.357,10.813,7.321l-5.918,44.753
	c-0.711,5.38-6.836,8.13-11.329,5.088l-33.436-22.636C366.714,293.059,366.993,286.351,371.723,283.693z"/>
<path fill="#DBBA6E" d="M389.766,131.693l39.354-22.118c5.244-2.947,11.602,1.357,10.813,7.321l-5.918,44.753
	c-0.711,5.38-6.836,8.13-11.329,5.088l-33.435-22.636C384.757,141.059,385.036,134.351,389.766,131.693z"/>
<path fill="#CDAE67" d="M408.64,341.026l-8.502-44.335c-1.133-5.908,4.965-10.573,10.371-7.935l40.57,19.799
	c4.877,2.38,5.544,9.06,1.234,12.358l-32.067,24.536C415.935,348.746,409.662,346.355,408.64,341.026z"/>
<path fill="#CDAE67" d="M344.64,338.069l-8.502-44.335c-1.133-5.908,4.965-10.573,10.371-7.935l40.57,19.799
	c4.877,2.38,5.544,9.06,1.234,12.358l-32.067,24.536C351.935,345.789,345.662,343.398,344.64,338.069z"/>
<path fill="#DBBA6E" d="M360.64,237.026l-8.502-44.335c-1.133-5.908,4.965-10.573,10.371-7.935l40.57,19.799
	c4.877,2.38,5.544,9.06,1.234,12.358l-32.067,24.536C367.935,244.746,361.662,242.355,360.64,237.026z"/>
<path fill="#F5D07B" d="M355.723,331.693l39.354-22.118c5.244-2.947,11.602,1.357,10.813,7.321l-5.918,44.753
	c-0.711,5.38-6.836,8.13-11.329,5.088l-33.436-22.636C350.714,341.059,350.993,334.351,355.723,331.693z"/>
<polygon fill="#D96762" points="24,72 40,120 40,392 24,439.996 40,463.996 56,439.996 72,463.996 88,439.996 104,463.996 
	120,439.996 136,463.996 152,439.996 168,463.996 184,439.996 200,463.996 216,439.996 232,463.996 248,439.996 264,463.996 
	280,439.996 296,463.996 312,439.996 296,392 296,120 312,72 296,48 280,72 264,48 248,72 232,48 216,72 200,48 184,72 168,48 
	152,72 136,48 120,72 104,48 88,72 72,48 56,72 40,48 "/>
<rect x="40" y="120" fill="#6FC0EC" width="256" height="272"/>
<path fill="#F5D07B" d="M77.915,156.53l44.859-5.056c5.978-0.674,10.159,5.766,7.111,10.952l-22.871,38.921
	c-2.749,4.679-9.461,4.828-12.416,0.277L72.61,167.759C69.655,163.207,72.523,157.137,77.915,156.53z"/>
<path fill="#F5D07B" d="M157.915,143.006l44.859-5.056c5.978-0.674,10.159,5.766,7.111,10.952l-22.871,38.921
	c-2.749,4.679-9.461,4.828-12.416,0.277l-21.988-33.865C149.655,149.684,152.523,143.614,157.915,143.006z"/>
<path fill="#F5D07B" d="M213.766,327.069l39.354-22.118c5.244-2.947,11.602,1.357,10.813,7.321l-5.918,44.753
	c-0.711,5.38-6.836,8.13-11.329,5.088l-33.436-22.636C208.757,336.436,209.036,329.728,213.766,327.069z"/>
<path fill="#F5D07B" d="M413.459,332.495l39.354-22.118c5.244-2.947,11.602,1.357,10.813,7.321l-5.918,44.753
	c-0.711,5.38-6.836,8.13-11.329,5.088l-33.435-22.636C408.449,341.861,408.728,335.154,413.459,332.495z"/>
<path fill="#F5D07B" d="M297.278,330.58l39.354-22.118c5.244-2.947,11.602,1.357,10.813,7.321l-5.918,44.753
	c-0.711,5.38-6.836,8.13-11.329,5.088l-33.436-22.636C292.269,339.947,292.548,333.239,297.278,330.58z"/>
<path fill="#F5D07B" d="M139.148,311.406l39.354-22.118c5.244-2.947,11.602,1.357,10.813,7.321l-5.918,44.753
	c-0.711,5.38-6.836,8.13-11.329,5.088l-33.436-22.636C134.139,320.773,134.418,314.065,139.148,311.406z"/>
<path fill="#F5D07B" d="M61.915,308.53l44.859-5.056c5.978-0.674,10.159,5.766,7.111,10.952l-22.871,38.921
	c-2.749,4.679-9.461,4.828-12.416,0.277L56.61,319.759C53.655,315.207,56.523,309.137,61.915,308.53z"/>
<path fill="#F5D07B" d="M214.626,181.729l34.898-28.636c4.65-3.816,11.661-0.685,11.923,5.325l1.97,45.1
	c0.237,5.421-5.315,9.197-10.27,6.984l-36.868-16.464C211.325,191.825,210.431,185.171,214.626,181.729z"/>
<rect x="40" y="200" fill="#D96762" width="256" height="112"/>
<rect x="40" y="240" fill="#5491B2" width="256" height="32"/>
<ellipse fill="#F5D07B" cx="168" cy="256" rx="64" ry="32"/>
<rect x="320" y="424" fill="#487D99" width="128" height="40"/>
<path fill="#5DA0C5" d="M429.258,432h-90.517c-24.852,0-46.25-17.542-51.124-41.912L280,352h208l-7.618,38.088
	C475.508,414.458,454.111,432,429.258,432z"/>
</svg>
