<?xml version="1.0" encoding="UTF-8" standalone="no"?> <svg xmlns="http://www.w3.org/2000/svg" viewBox="0 0 64 64"><title>soda, bottle, cola, glass, drink, </title><g id="Glyph"><circle cx="21" cy="32" r="3"/><path d="M11.13,37.72c0,.1.05.19.07.28H30.8c0-.1.06-.19.08-.29l0-.23a6.74,6.74,0,0,0,.09-1V26.67a2,2,0,0,0,0-.39l0-.12c0-.05,0-.1-.05-.16H11.13c0,.05,0,.1-.05.16l0,.12a2,2,0,0,0,0,.39v9.78a6.83,6.83,0,0,0,.08,1C11.1,37.55,11.11,37.63,11.13,37.72ZM21,27a5,5,0,1,1-5,5A5,5,0,0,1,21,27Z"/><polygon points="23.37 10 18.64 10 15.81 16 26.19 16 23.37 10"/><polygon points="24.63 8 25 8 25 4 17 4 17 8 17.36 8 24.63 8"/><path d="M30.15,40H11.85a9.32,9.32,0,0,1,0,5.95c-1.69,5-1.36,11.36,2.48,14.05h3.08l.69-1.39a1.1,1.1,0,0,1,1-.61h3.88a1.1,1.1,0,0,1,1,.61L24.62,60h3.07c4-2.9,4.12-9.25,2.52-14A9.46,9.46,0,0,1,30.15,40ZM16,54H14V52h2Zm1-10H15V42h2Zm5,5H20V47h2Zm5,8H25V55h2Zm1-13H26V42h2Z"/><polygon points="27.13 18 14.88 18 12.05 24 29.95 24 27.13 18"/><rect x="41" y="58" width="10" height="2"/><path d="M39,42.34a20.52,20.52,0,0,0,.62,5l.7,2.84A22.51,22.51,0,0,1,41,55.66V56H51v-.34a22.53,22.53,0,0,1,.68-5.48l.7-2.83a20.54,20.54,0,0,0,.62-5V38H39ZM47,46h2v2H47Zm-1,5H44V49h2Zm-3-8h2v2H43Z"/><rect x="39" y="32" width="14" height="4"/></g></svg>