<?xml version="1.0" encoding="UTF-8" standalone="no"?> <svg xmlns="http://www.w3.org/2000/svg" viewBox="0 0 64 64"><title>Seed, rice, fertilizer, bag, sack, </title><g id="Flat"><path d="M58.56,45.54c1.86,1.87,2.61,4.13,1.68,5.06s-3.19.18-5.06-1.68a.874.874,0,0,0-.08-.1c-.71.19-1.57.41-2.55.61,0,0-.8.16-1.76.31-.25.05-.52.09-.79.12-1.54.21-6.33.66-8,.14-6.53-2.03-8.16-32.12,2-36a8.482,8.482,0,0,1,5.9.26,2.931,2.931,0,0,1,.29.05,35.1,35.1,0,0,1,4.91,1.13c.03-.03.05-.07.08-.1,1.87-1.86,4.13-2.62,5.06-1.69s.18,3.2-1.68,5.06c-.03.03-.07.06-.1.09a54.141,54.141,0,0,1,1.37,8.18l.15,2.06a59.43,59.43,0,0,1-1.52,16.42C58.49,45.49,58.53,45.51,58.56,45.54Z" style="fill:#9b643e"/><path d="M53,33a61.291,61.291,0,0,1-2.21,16.74c-.25.05-.52.09-.79.12-1.54.21-6.33.66-8,.14-6.53-2.03-8.16-32.12,2-36a8.482,8.482,0,0,1,5.9.26,2.931,2.931,0,0,1,.29.05A59.959,59.959,0,0,1,53,33Z" style="fill:#875838"/><path d="M23,48a14.129,14.129,0,0,1-9.13,1.86c-.11-.02-.23-.03-.34-.05a39.8,39.8,0,0,1-4.73-.99.9.9,0,0,0-.09.1c-1.86,1.86-4.12,2.61-5.06,1.68s-.17-3.19,1.69-5.06c.03-.03.07-.05.1-.08a60.015,60.015,0,0,1-1.47-10.4L3.91,33A58.173,58.173,0,0,1,5.44,18.8c-.03-.03-.07-.06-.1-.09-1.86-1.86-2.62-4.12-1.69-5.06s3.2-.17,5.06,1.69c.03.03.06.07.09.1.65-.2,1.55-.46,2.65-.7,0,0,1-.23,2.03-.4l.61-.09A21.1,21.1,0,0,1,24,16C31.84,20.27,33.05,41.62,23,48Z" style="fill:#9b643e"/><path d="M23,48a14.129,14.129,0,0,1-9.13,1.86c-.11-.02-.23-.03-.34-.05A60.659,60.659,0,0,1,11,32a60.83,60.83,0,0,1,2.48-17.66l.61-.09A21.1,21.1,0,0,1,24,16C31.84,20.27,33.05,41.62,23,48Z" style="fill:#875838"/><path d="M49.12,48.88c2.34,2.34,3.29,5.19,2.12,6.36s-4.02.22-6.36-2.12c-.04-.04-.07-.08-.11-.12a47.73,47.73,0,0,1-25.54,0c-.04.04-.07.08-.11.12-2.34,2.34-5.19,3.29-6.36,2.12s-.22-4.02,2.12-6.36c.04-.04.08-.07.12-.11-.13-.57-.25-1.13-.36-1.7A73.4,73.4,0,0,1,15,15.23c-.04-.04-.08-.07-.12-.11-2.34-2.34-3.29-5.19-2.12-6.36s4.02-.22,6.36,2.12c.04.04.07.08.11.12a43.105,43.105,0,0,1,25.54,0c.04-.04.07-.08.11-.12,2.34-2.34,5.19-3.29,6.36-2.12s.22,4.02-2.12,6.36c-.04.04-.08.07-.12.11.28,1.11.52,2.23.74,3.35A71.917,71.917,0,0,1,49,48.77C49.04,48.81,49.08,48.84,49.12,48.88Z" style="fill:#a5683d"/><path d="M49,15.23c.28,1.11.52,2.23.74,3.35A61.417,61.417,0,0,1,36.41,34.43,72,72,0,0,1,14.64,47.07,73.4,73.4,0,0,1,15,15.23c-.04-.04-.08-.07-.12-.11-2.34-2.34-3.29-5.19-2.12-6.36s4.02-.22,6.36,2.12c.04.04.07.08.11.12a43.105,43.105,0,0,1,25.54,0c.04-.04.07-.08.11-.12,2.34-2.34,5.19-3.29,6.36-2.12s.22,4.02-2.12,6.36C49.08,15.16,49.04,15.19,49,15.23Z" style="fill:#af7146"/><path d="M32,30a1,1,0,0,1-1-1V19a3,3,0,0,0-3-3,1,1,0,0,1,0-2,5.006,5.006,0,0,1,5,5V29A1,1,0,0,1,32,30Z" style="fill:#009245"/><path d="M32,20a1,1,0,0,1-1-1V17a5.006,5.006,0,0,1,5-5,1,1,0,0,1,0,2,3,3,0,0,0-3,3v2A1,1,0,0,1,32,20Z" style="fill:#009245"/><rect x="20" y="33" width="24" height="12" style="fill:#e6e6e6"/><rect x="23" y="36" width="8" height="2" style="fill:gray"/><rect x="29" y="40" width="12" height="2" style="fill:gray"/><rect x="23" y="40" width="4" height="2" style="fill:gray"/><rect x="33" y="36" width="8" height="2" style="fill:gray"/><path d="M40,19a6.009,6.009,0,0,1-6,6H32a5.47,5.47,0,0,1,.09-1,5.832,5.832,0,0,1,1.67-3.24A5.944,5.944,0,0,1,38,19Z" style="fill:#13a555"/><path d="M30,25h2a6,6,0,0,0-6-6H24A6,6,0,0,0,30,25Z" style="fill:#13a555"/><path d="M25.09,19a5.832,5.832,0,0,0,1.67,3.24A5.944,5.944,0,0,0,31,24h.91a5.832,5.832,0,0,0-1.67-3.24A5.944,5.944,0,0,0,26,19Z" style="fill:#22af5e"/><path d="M38.91,19a5.832,5.832,0,0,1-1.67,3.24A5.944,5.944,0,0,1,33,24h-.91a5.832,5.832,0,0,1,1.67-3.24A5.944,5.944,0,0,1,38,19Z" style="fill:#22af5e"/></g><g id="Outline"><path d="M60.95,12.947c-1.3-1.3-3.885-.7-6.136,1.364-1.063-.3-2.132-.543-3.2-.749a8.751,8.751,0,0,0,.832-1.746c.528-1.58.35-2.918-.5-3.766s-2.186-1.024-3.765-.5a10.46,10.46,0,0,0-3.7,2.321,44.189,44.189,0,0,0-24.962,0,10.473,10.473,0,0,0-3.7-2.321c-1.579-.524-2.916-.35-3.765.5s-1.027,2.186-.5,3.766a8.665,8.665,0,0,0,.824,1.729c-1.1.21-2.2.452-3.293.766-2.252-2.067-4.837-2.663-6.136-1.364s-.7,3.909,1.393,6.168A60,60,0,0,0,2.93,34.031l2-.064A58.187,58.187,0,0,1,6.411,19.024a1,1,0,0,0-.267-.931c-.034-.033-.068-.064-.1-.087C4.421,16.379,4.025,14.7,4.361,14.361S6.378,14.422,8,16.042c.016.019.075.084.093.1a1,1,0,0,0,1,.25,35.425,35.425,0,0,1,4.628-1.058c.063.071.119.145.184.215a74.886,74.886,0,0,0,0,32.9c-.106.113-.2.233-.3.348a38.97,38.97,0,0,1-4.541-.943,1,1,0,0,0-.981.268l-.076.086C6.38,49.834,4.7,50.233,4.361,49.9s.06-2.018,1.688-3.645c.014-.011.07-.063.083-.076a1,1,0,0,0,.279-.943,59.042,59.042,0,0,1-1.383-9.268l-2,.135A61.249,61.249,0,0,0,4.34,45.141C2.25,47.4,1.643,50,2.947,51.309a2.48,2.48,0,0,0,1.81.685A6.877,6.877,0,0,0,9.1,49.932c1.059.273,2.127.488,3.193.674a8.6,8.6,0,0,0-.739,1.578c-.528,1.58-.35,2.918.5,3.765s2.185,1.028,3.765.5a10.458,10.458,0,0,0,3.716-2.333,48.821,48.821,0,0,0,24.936,0,10.457,10.457,0,0,0,3.716,2.333,5.316,5.316,0,0,0,1.671.3,2.862,2.862,0,0,0,2.094-.8c.849-.847,1.027-2.185.5-3.765a8.546,8.546,0,0,0-.748-1.593c1.034-.183,2.069-.393,3.1-.659a6.872,6.872,0,0,0,4.34,2.062,2.484,2.484,0,0,0,1.81-.685c1.3-1.306.7-3.91-1.393-6.168a60.318,60.318,0,0,0,1.416-16.2l-2,.106a58.393,58.393,0,0,1-1.49,16.187,1.166,1.166,0,0,0,.365,1.019c1.627,1.627,2.022,3.309,1.686,3.645s-2.017-.06-3.632-1.674l-.078-.087a1,1,0,0,0-.992-.28,38.659,38.659,0,0,1-4.451.927c-.1-.11-.184-.224-.285-.332A72.542,72.542,0,0,0,50.1,15.543c.059-.063.108-.129.166-.192a35.233,35.233,0,0,1,4.538,1.043,1,1,0,0,0,1.007-.262l.077-.084c1.627-1.626,3.305-2.025,3.644-1.687S59.477,16.379,57.855,18c-.015.014-.077.068-.091.083a1,1,0,0,0-.275.958,53.3,53.3,0,0,1,1.344,8.008l1.992-.18a55.519,55.519,0,0,0-1.262-7.76C61.649,16.852,62.254,14.252,60.95,12.947ZM50.535,54.535c-.273.274-.931.278-1.719.017A8.843,8.843,0,0,1,45.574,52.4c-.012-.014-.076-.085-.09-.1a1,1,0,0,0-.715-.3,1.035,1.035,0,0,0-.264.035,46.876,46.876,0,0,1-25.01,0,1,1,0,0,0-.979.267l-.1.112a8.836,8.836,0,0,1-3.23,2.138c-.789.261-1.447.255-1.719-.017s-.278-.931-.017-1.719A8.843,8.843,0,0,1,15.6,49.574c.014-.012.085-.076.1-.09a1,1,0,0,0,.277-.94,72.9,72.9,0,0,1,0-33.088,1,1,0,0,0-.277-.94l-.112-.1a8.836,8.836,0,0,1-2.138-3.23c-.261-.788-.256-1.448.017-1.72s.932-.276,1.719-.016A8.843,8.843,0,0,1,18.426,11.6c.012.014.076.085.09.1a.994.994,0,0,0,1.005.259,42.286,42.286,0,0,1,24.958,0,1,1,0,0,0,1.005-.259l.1-.112a8.836,8.836,0,0,1,3.23-2.138c.788-.262,1.448-.257,1.719.016s.278.932.017,1.72A8.843,8.843,0,0,1,48.4,14.426c-.014.012-.085.076-.1.09a1,1,0,0,0-.273.956,70.58,70.58,0,0,1,0,33.072,1,1,0,0,0,.277.94l.112.1a8.836,8.836,0,0,1,2.138,3.23C50.813,53.6,50.808,54.263,50.535,54.535Z"/><path d="M30,26h1v3a1,1,0,0,0,2,0V26h1a7.009,7.009,0,0,0,7-7,1,1,0,0,0-1-1H38a6.973,6.973,0,0,0-5,2.111V17a3,3,0,0,1,3-3,1,1,0,0,0,0-2,4.993,4.993,0,0,0-4.679,3.29A4.964,4.964,0,0,0,28,14a1,1,0,0,0,0,2,3,3,0,0,1,3,3v1.111A6.973,6.973,0,0,0,26,18H24a1,1,0,0,0-1,1A7.009,7.009,0,0,0,30,26Zm8-6h.9A5.008,5.008,0,0,1,34,24h-.9A5.008,5.008,0,0,1,38,20ZM26,20a5.008,5.008,0,0,1,4.9,4H30a5.008,5.008,0,0,1-4.9-4Z"/><path d="M44,32H20a1,1,0,0,0-1,1V45a1,1,0,0,0,1,1H44a1,1,0,0,0,1-1V33A1,1,0,0,0,44,32ZM43,44H21V34H43Z"/><rect x="23" y="36" width="8" height="2"/><rect x="29" y="40" width="12" height="2"/><rect x="23" y="40" width="4" height="2"/><rect x="33" y="36" width="8" height="2"/></g></svg>