<?xml version="1.0" encoding="UTF-8" standalone="no"?> <svg width="512" height="512" viewBox="0 0 512 512" fill="none" xmlns="http://www.w3.org/2000/svg">
<path d="M128 288H112V120C112 92.4175 122.957 65.9647 142.461 46.4609C161.965 26.9571 188.417 16 216 16C243.583 16 270.035 26.9571 289.539 46.4609C309.043 65.9647 320 92.4175 320 120V288H304V120C304 96.6609 294.729 74.2778 278.225 57.7746C261.722 41.2714 239.339 32 216 32C192.661 32 170.278 41.2714 153.775 57.7746C137.271 74.2778 128 96.6609 128 120V288Z" fill="#C49178"/>
<path d="M139.2 238.4L139.2 238.4C95.5797 296.56 72 367.3 72 440V440H360V440C360 367.3 336.42 296.56 292.8 238.4L292.8 238.4C291.31 236.413 289.377 234.8 287.155 233.689C284.934 232.578 282.484 232 280 232H152C149.516 232 147.066 232.578 144.845 233.689C142.623 234.8 140.69 236.413 139.2 238.4V238.4Z" fill="#DBB5A9"/>
<path d="M452 416H416V400H452C459.426 400 466.548 397.05 471.799 391.799C477.05 386.548 480 379.426 480 372C480 364.574 477.05 357.452 471.799 352.201C466.548 346.95 459.426 344 452 344H424V328H452C463.67 328 474.861 332.636 483.113 340.887C491.364 349.139 496 360.33 496 372C496 383.67 491.364 394.861 483.113 403.113C474.861 411.364 463.67 416 452 416Z" fill="#BEBEBE"/>
<path d="M216 160C211.757 160 207.687 161.686 204.686 164.686C201.686 167.687 200 171.756 200 176V200H232V176C232 171.756 230.314 167.687 227.314 164.686C224.313 161.686 220.243 160 216 160Z" fill="#DBB5A9"/>
<path d="M154.941 330.941L64 240H24L104.854 370.61C107.516 374.911 111.156 378.523 115.476 381.154C119.797 383.784 124.677 385.358 129.72 385.748C134.764 386.138 139.828 385.332 144.501 383.398C149.175 381.463 153.326 378.453 156.618 374.612L156.618 374.612C161.891 368.46 164.648 360.545 164.337 352.448C164.026 344.351 160.67 336.67 154.941 330.941V330.941Z" fill="#C49178"/>
<path d="M24 440H488L475.647 477.06C474.585 480.245 472.547 483.016 469.823 484.98C467.099 486.943 463.826 488 460.468 488H51.5322C48.174 488 44.901 486.943 42.1768 484.98C39.4525 483.016 37.4151 480.245 36.3532 477.06L24 440Z" fill="#DFDFDF"/>
<path d="M448 296V315.18C448 322.15 447.663 329.09 446.99 336C443.344 373.487 429.897 409.355 408 440H296C274.106 409.353 260.66 373.486 257.01 336C256.34 329.1 256.003 322.16 256 315.18V296H448Z" fill="#DFDFDF"/>
<path d="M446.99 336C443.344 373.487 429.897 409.355 408 440H296C274.106 409.353 260.66 373.486 257.01 336H446.99Z" fill="#FAB542"/>
<path d="M268.422 208.845C267.093 206.187 265.051 203.952 262.523 202.39C259.995 200.827 257.083 200 254.111 200H177.889C174.917 200 172.005 200.827 169.477 202.39C166.949 203.952 164.907 206.187 163.578 208.845L152 232H280L268.422 208.845Z" fill="#C49178"/>
<path d="M456 272H440V248C439.988 237.395 435.77 227.228 428.271 219.729C420.772 212.23 410.605 208.012 400 208H392C385.635 208 379.53 205.471 375.029 200.971C370.529 196.47 368 190.365 368 184C368 177.635 370.529 171.53 375.029 167.029C379.53 162.529 385.635 160 392 160H400C410.609 160 420.783 155.786 428.284 148.284C435.786 140.783 440 130.609 440 120C440 109.391 435.786 99.2172 428.284 91.7157C420.783 84.2143 410.609 80 400 80H392C385.637 79.9927 379.537 77.4618 375.037 72.9625C370.538 68.4632 368.007 62.363 368 56V16H384V56C384.002 58.121 384.846 60.1544 386.346 61.6542C387.846 63.1539 389.879 63.9976 392 64H400C414.852 64 429.096 69.9 439.598 80.402C450.1 90.9041 456 105.148 456 120C456 134.852 450.1 149.096 439.598 159.598C429.096 170.1 414.852 176 400 176H392C389.878 176 387.843 176.843 386.343 178.343C384.843 179.843 384 181.878 384 184C384 186.122 384.843 188.157 386.343 189.657C387.843 191.157 389.878 192 392 192H400C414.847 192.017 429.081 197.922 439.579 208.421C450.078 218.919 455.983 233.153 456 248V272Z" fill="#DFDFDF"/>
<path d="M424 272H408V248C407.998 245.879 407.154 243.846 405.654 242.346C404.154 240.846 402.121 240.002 400 240H392C377.148 240 362.904 234.1 352.402 223.598C341.9 213.096 336 198.852 336 184C336 169.148 341.9 154.904 352.402 144.402C362.904 133.9 377.148 128 392 128H400C402.122 128 404.157 127.157 405.657 125.657C407.157 124.157 408 122.122 408 120C408 117.878 407.157 115.843 405.657 114.343C404.157 112.843 402.122 112 400 112H392C377.153 111.983 362.919 106.078 352.421 95.5795C341.922 85.0811 336.017 70.847 336 56V16H352V56C352.012 66.605 356.23 76.7721 363.729 84.271C371.228 91.7698 381.395 95.988 392 96H400C406.365 96 412.47 98.5286 416.971 103.029C421.471 107.53 424 113.635 424 120C424 126.365 421.471 132.47 416.971 136.971C412.47 141.471 406.365 144 400 144H392C381.391 144 371.217 148.214 363.716 155.716C356.214 163.217 352 173.391 352 184C352 194.609 356.214 204.783 363.716 212.284C371.217 219.786 381.391 224 392 224H400C406.363 224.007 412.463 226.538 416.963 231.037C421.462 235.537 423.993 241.637 424 248V272Z" fill="#DFDFDF"/>
<path d="M422.908 432C426.172 426.714 429.203 421.32 432 415.818V416H452C463.355 416.002 474.27 411.613 482.464 403.752C490.657 395.891 495.494 385.167 495.962 373.822C496.431 362.477 492.495 351.39 484.978 342.88C477.46 334.37 466.944 329.096 455.628 328.162C455.875 323.854 455.999 319.528 456 315.182V288H332.568C328.681 280.111 324.492 272.372 320 264.783V120C320 92.4175 309.043 65.9647 289.539 46.4609C270.035 26.9571 243.583 16 216 16C188.417 16 161.965 26.9571 142.461 46.4609C122.957 65.9647 112 92.4175 112 120V264.736C110.512 267.248 109.06 269.779 107.644 272.33L67.3135 232H9.63867L78.0908 342.575C69.5077 371.637 64.8048 401.706 64.1042 432H12.9004L28.7637 479.589C30.3526 484.371 33.4078 488.529 37.495 491.475C41.5823 494.421 46.4939 496.005 51.5322 496H460.468C465.506 496.005 470.418 494.421 474.505 491.475C478.592 488.529 481.647 484.371 483.236 479.589L499.1 432H422.908ZM403.834 432H300.166C282.097 405.719 270.398 375.589 265.999 344H438.001C433.602 375.589 421.903 405.719 403.834 432ZM480 372C479.992 379.424 477.039 386.541 471.79 391.79C466.541 397.039 459.424 399.992 452 400H439.271C446.658 382.096 451.655 363.298 454.135 344.09C461.167 344.634 467.735 347.81 472.529 352.983C477.323 358.157 479.991 364.947 480 372ZM440 304C440 304 439.862 323.747 439.603 328H264.397C264.138 323.747 264 304 264 304H440ZM128 120C128 96.6609 137.271 74.2778 153.775 57.7746C170.278 41.2714 192.661 32 216 32C239.339 32 261.722 41.2714 278.225 57.7746C294.729 74.2778 304 96.6609 304 120V240.171C302.424 237.962 300.824 235.772 299.2 233.6C295.76 229.04 290.813 225.848 285.24 224.593L275.577 205.268C273.596 201.271 270.535 197.91 266.741 195.565C262.947 193.22 258.572 191.985 254.111 192H240V176C240 169.635 237.471 163.53 232.971 159.029C228.47 154.529 222.365 152 216 152C209.635 152 203.53 154.529 199.029 159.029C194.529 163.53 192 169.635 192 176V192H177.889C173.428 191.985 169.053 193.22 165.259 195.565C161.465 197.91 158.404 201.271 156.423 205.267L146.76 224.593C141.187 225.848 136.24 229.04 132.8 233.6C131.173 235.769 129.573 237.96 128 240.173V120ZM254.111 208C255.598 207.995 257.057 208.407 258.321 209.188C259.586 209.97 260.606 211.09 261.267 212.422L267.056 224H164.944L170.733 212.422C171.394 211.09 172.414 209.97 173.679 209.188C174.944 208.407 176.402 207.995 177.889 208H254.111ZM208 192V176C208 173.878 208.843 171.843 210.343 170.343C211.843 168.843 213.878 168 216 168C218.122 168 220.157 168.843 221.657 170.343C223.157 171.843 224 173.878 224 176V192H208ZM145.601 243.2C146.348 242.208 147.314 241.404 148.425 240.848C149.535 240.293 150.759 240.003 152 240H280C281.241 240.003 282.465 240.293 283.575 240.848C284.686 241.404 285.652 242.208 286.399 243.2C296.997 257.35 306.436 272.332 314.625 288H248V315.182C247.925 356.445 259.387 396.907 281.092 432H80.1096C80.6898 408.123 83.8786 384.381 89.6194 361.198L98.0527 374.821C101.353 380.213 105.891 384.741 111.292 388.028C116.692 391.316 122.798 393.268 129.104 393.724C130.177 393.807 131.244 393.848 132.306 393.848C138.086 393.862 143.801 392.613 149.049 390.19C154.297 387.767 158.954 384.227 162.692 379.818C169.236 372.118 172.652 362.242 172.264 352.143C171.876 342.045 167.713 332.46 160.598 325.284L119.426 284.113C127.131 269.849 135.88 256.174 145.601 243.2V243.2ZM38.3613 248H60.6865L149.283 336.598C153.564 340.915 156.069 346.681 156.302 352.756C156.536 358.832 154.481 364.773 150.544 369.406C148.071 372.291 144.952 374.553 141.441 376.006C137.93 377.46 134.126 378.064 130.337 377.771C126.548 377.479 122.882 376.296 119.636 374.32C116.39 372.344 113.656 369.63 111.656 366.399L38.3613 248ZM468.057 474.53C467.527 476.124 466.509 477.51 465.147 478.492C463.784 479.474 462.147 480.002 460.468 480H51.5322C49.8528 480.002 48.2156 479.474 46.8532 478.492C45.4909 477.51 44.4727 476.124 43.9434 474.53L35.0996 448H476.9L468.057 474.53Z" fill="black"/>
<path d="M392 80H400C410.609 80 420.783 84.2143 428.284 91.7157C435.786 99.2172 440 109.391 440 120C440 130.609 435.786 140.783 428.284 148.284C420.783 155.786 410.609 160 400 160H392C385.635 160 379.53 162.529 375.029 167.029C370.529 171.53 368 177.635 368 184C368 190.365 370.529 196.47 375.029 200.971C379.53 205.471 385.635 208 392 208H400C410.605 208.012 420.772 212.23 428.271 219.729C435.77 227.228 439.988 237.395 440 248V272H456V248C455.983 233.153 450.078 218.919 439.579 208.421C429.081 197.922 414.847 192.017 400 192H392C389.878 192 387.843 191.157 386.343 189.657C384.843 188.157 384 186.122 384 184C384 181.878 384.843 179.843 386.343 178.343C387.843 176.843 389.878 176 392 176H400C414.852 176 429.096 170.1 439.598 159.598C450.1 149.096 456 134.852 456 120C456 105.148 450.1 90.9041 439.598 80.402C429.096 69.9 414.852 64 400 64H392C389.879 63.9976 387.846 63.1539 386.346 61.6542C384.846 60.1544 384.002 58.121 384 56V16H368V56C368.007 62.363 370.538 68.4632 375.037 72.9625C379.537 77.4618 385.637 79.9927 392 80V80Z" fill="black"/>
<path d="M400 128H392C377.148 128 362.904 133.9 352.402 144.402C341.9 154.904 336 169.148 336 184C336 198.852 341.9 213.096 352.402 223.598C362.904 234.1 377.148 240 392 240H400C402.121 240.002 404.154 240.846 405.654 242.346C407.154 243.846 407.998 245.879 408 248V272H424V248C423.993 241.637 421.462 235.537 416.963 231.037C412.463 226.538 406.363 224.007 400 224H392C381.391 224 371.217 219.786 363.716 212.284C356.214 204.783 352 194.609 352 184C352 173.391 356.214 163.217 363.716 155.716C371.217 148.214 381.391 144 392 144H400C406.365 144 412.47 141.471 416.971 136.971C421.471 132.47 424 126.365 424 120C424 113.635 421.471 107.53 416.971 103.029C412.47 98.5286 406.365 96 400 96H392C381.395 95.988 371.228 91.7698 363.729 84.271C356.23 76.7721 352.012 66.605 352 56V16H336V56C336.017 70.847 341.922 85.0811 352.421 95.5795C362.919 106.078 377.153 111.983 392 112H400C402.122 112 404.157 112.843 405.657 114.343C407.157 115.843 408 117.878 408 120C408 122.122 407.157 124.157 405.657 125.657C404.157 127.157 402.122 128 400 128Z" fill="black"/>
</svg>
