<?xml version="1.0" encoding="UTF-8" standalone="no"?> <svg xmlns="http://www.w3.org/2000/svg" viewBox="0 0 512 512"><g id="filled_outline" data-name="filled outline"><path d="M24,344.322H280a0,0,0,0,1,0,0v96a22,22,0,0,1-22,22H46a22,22,0,0,1-22-22v-96A0,0,0,0,1,24,344.322Z" style="fill:#4799cf"/><rect x="24" y="272.322" width="256" height="96" rx="24" style="fill:#3775a4"/><path d="M280,344.322h0a24.006,24.006,0,0,1-24,24H48a24.006,24.006,0,0,1-24-24h0a24.006,24.006,0,0,1,24-24H256A24.006,24.006,0,0,1,280,344.322Z" style="fill:#f3af3e"/><path d="M280,296.322v48a24.006,24.006,0,0,1-24,24H162.6a58.858,58.858,0,0,1-18.6-43v-26a58.758,58.758,0,0,1,6.52-27H256A24.006,24.006,0,0,1,280,296.322Z" style="fill:#6cbae5"/><path d="M204.437,425.666l-14.015-9.344,14.015-9.343a8,8,0,0,0-8.875-13.313L174.1,407.977l-10.579-7.052a35.186,35.186,0,0,0-39.034,0l-23.1,15.4,23.1,15.4a35.181,35.181,0,0,0,39.034,0l10.578-7.052,21.467,14.312a8,8,0,0,0,8.875-13.313Z" style="fill:#277baa"/><rect x="264" y="102.322" width="224" height="360" style="fill:#dc4d41"/><rect x="264" y="238.32" width="224" height="224" style="fill:#d9d9d9"/><path d="M488,102.32a24.077,24.077,0,0,1-.49,4.84v.01A24.016,24.016,0,0,1,464,126.32H288a24.009,24.009,0,0,1-23.51-19.15v-.01A24.005,24.005,0,0,1,288,78.32H464A24.006,24.006,0,0,1,488,102.32Z" style="fill:#d9d9d9"/><path d="M487.51,107.16v.01A24.016,24.016,0,0,1,464,126.32H288a24.009,24.009,0,0,1-23.51-19.15v-.01A24.011,24.011,0,0,1,288,88H464A24.018,24.018,0,0,1,487.51,107.16Z" style="fill:#cdcdcd"/><circle cx="376" cy="238.322" r="32" style="fill:#fbb540"/><path d="M368,358.322h16a104,104,0,0,1,104,104v0a0,0,0,0,1,0,0H264a0,0,0,0,1,0,0v0A104,104,0,0,1,368,358.322Z" style="fill:#fbd699"/><path d="M476.43,460.26v2.06H275.57v-2.06a94.947,94.947,0,0,1,94.95-94.94h10.96A94.947,94.947,0,0,1,476.43,460.26Z" style="fill:#fbedbf"/><polygon points="353.83 436.49 343.04 462.32 332.64 462.32 311.97 453.68 324.3 424.15 353.83 436.49" style="fill:#eeb58e"/><rect x="313.232" y="399.559" width="64" height="32" rx="16" transform="translate(186.874 -100.965) rotate(22.674)" style="fill:#bd9070"/><polygon points="464 454.82 452.21 462.32 430.84 462.32 419.82 445 446.82 427.82 464 454.82" style="fill:#eeb58e"/><rect x="392.731" y="406.914" width="64" height="32" rx="16" transform="translate(-160.65 294.146) rotate(-32.471)" style="fill:#bd9070"/><rect x="366.089" y="344.234" width="32" height="32" transform="translate(480.87 -155.52) rotate(57.529)" style="fill:#eeb58e"/><rect x="377.086" y="327.054" width="64" height="32" rx="16" transform="translate(478.879 -186.253) rotate(57.529)" style="fill:#bd9070"/><path d="M432,38.322a24,24,0,0,0-24,24v40h16V61.186c0-3.79,3.582-6.864,8-6.864s8,3.074,8,6.864v41.136h16v-40A24,24,0,0,0,432,38.322Z" style="fill:#a8a8a8"/><rect x="408" y="98.322" width="48" height="11.643" style="fill:#878787"/><path d="M144,312.322v-92a68,68,0,0,1,68-68h0a20,20,0,0,1,20,20v48a20,20,0,0,1-20,20h0a68,68,0,0,0-68,68v8" style="fill:#d9d9d9"/><path d="M204.437,425.666l-14.015-9.344,14.015-9.343a8,8,0,0,0-8.875-13.313L176,406.708l-12.906-8.6a34.418,34.418,0,0,0-38.188,0l-17.344,11.562a8,8,0,0,0,0,13.313l17.344,11.562a34.423,34.423,0,0,0,38.188,0l12.906-8.6,19.562,13.042a8,8,0,0,0,8.875-13.313Zm-50.218-4.437a18.428,18.428,0,0,1-20.438,0l-7.359-4.907,7.359-4.906a18.423,18.423,0,0,1,20.438,0l7.359,4.906Z"/><path d="M464,70.32v-8a32,32,0,0,0-64,0v8H288a32,32,0,0,0-32,32v162H171.267a59.765,59.765,0,0,1,40.733-16,28.031,28.031,0,0,0,28-28v-48a28.032,28.032,0,0,0-28-28,76.086,76.086,0,0,0-76,76v44H48a32.037,32.037,0,0,0-32,32v144a30.034,30.034,0,0,0,30,30H488a8,8,0,0,0,8-8v-360A32.037,32.037,0,0,0,464,70.32Zm-48.805,160a40,40,0,0,0-78.39,0H272v-100.3a31.793,31.793,0,0,0,16,4.305H464a31.8,31.8,0,0,0,16-4.282V230.32Zm-39.195-16a24,24,0,1,1-24,24A24.028,24.028,0,0,1,376,214.322Zm40-152a16,16,0,0,1,32,0v32h-8v-32a8,8,0,0,0-16,0v32h-8ZM276.68,91.013A15.93,15.93,0,0,1,288,86.32H400v16a8,8,0,0,0,8,8h48a8,8,0,0,0,8-8v-16a16,16,0,0,1,0,32H288a16,16,0,0,1-11.32-27.307ZM256,360.32H165.9a50.486,50.486,0,0,1-13.9-35v-17a59.622,59.622,0,0,1,6.958-28H256Zm-224-18a16,16,0,0,1,16-16h88s.054,2.711.149,3.2a67.33,67.33,0,0,0,9.76,30.8H48a16.007,16.007,0,0,1-15.957-15.142C32.1,344.662,32,342.751,32,342.32Zm120-122a60.068,60.068,0,0,1,60-60,12.013,12.013,0,0,1,12,12v48a12.013,12.013,0,0,1-12,12s-5.29.078-5.9.227A75.973,75.973,0,0,0,152,261.724Zm-104,60h88v30H48a31.8,31.8,0,0,0-16,4.287V296.32A16.019,16.019,0,0,1,48,280.32Zm-16,160V372.015a31.793,31.793,0,0,0,16,4.305H256v78H46A14.015,14.015,0,0,1,32,440.32Zm325.86-73.457,12.571,19.754a8,8,0,0,0,11.044,2.454l21.412-13.626a24.122,24.122,0,0,0,14.827,5.1,23.845,23.845,0,0,0,11.464-2.935,95.533,95.533,0,0,1,22.947,17.151,24.035,24.035,0,0,0-26.78-.686l-27,17.181a24,24,0,0,0,5.442,43.063H355.052l3.6-8.621c.446.025.893.041,1.341.041a24.008,24.008,0,0,0,9.253-46.159l-29.527-12.335a23.986,23.986,0,0,0-25.351,39.923L304.588,450.6A7.952,7.952,0,0,0,304,454.32H272.333a95.988,95.988,0,0,1,85.527-87.457Zm67.625-8.576a7.942,7.942,0,0,1-2.237,4.006c-.046.04-.865.746-1.277,1.009a8.011,8.011,0,0,1-11.044-2.454l-17.181-27a8,8,0,1,1,13.5-8.59l17.18,27A7.946,7.946,0,0,1,425.485,358.287Zm-40.942-9.1,1.952,3.069,6.638,10.43-13.5,8.59-8.59-13.5ZM435.232,454.32l-4.367-6.862,13.5-8.592,8.588,13.5-3.074,1.956Zm7.319-33.264-.026.014-27,17.18c-.013.008-.024.018-.037.026a8,8,0,0,1-8.55-13.521l27-17.181a8,8,0,0,1,8.616,13.482ZM334.245,454.32l-11.811-4.937L328.6,434.62l14.767,6.169-5.653,13.531Zm22.677-25.208-.007,0-29.531-12.339c-.01,0-.021-.008-.031-.012a8,8,0,0,1,6.2-14.747l29.527,12.335a8,8,0,0,1-6.158,14.767ZM471.98,454.32a8,8,0,0,0-1.23-3.8l-13.624-21.41a24.045,24.045,0,0,0,2.238-26.149,96.457,96.457,0,0,1,20.3,51.354Zm6.19-52.658A112.205,112.205,0,0,0,440,365.323a23.977,23.977,0,0,0-2.078-21.656l-17.179-27A24.009,24.009,0,0,0,377.1,334.96l-21.4,13.616a7.977,7.977,0,0,0-2.627,2.746A112.329,112.329,0,0,0,272,404.554V246.32h64.805a40,40,0,0,0,78.39,0H480V404.612C479.4,403.622,478.8,402.636,478.17,401.662Z"/></g></svg>