<?xml version="1.0" encoding="iso-8859-1"?>
<!-- Uploaded to: SVGRepo, www.svgrepo.com, Transformed by: SVGRepo Tools -->
<svg fill="#000000" height="800px" width="800px" version="1.1" id="Capa_1" xmlns="http://www.w3.org/2000/svg" xmlns:xlink="http://www.w3.org/1999/xlink" 
	 viewBox="0 0 362.06 362.06" xml:space="preserve">
<g id="XMLID_476_">
	<path id="XMLID_477_" d="M341.876,58.967c-23.438-8.313-47.88-12.643-72.666-12.93c-23.467-20.891-54.364-33.606-88.18-33.606
		c-33.817,0-64.715,12.715-88.181,33.607c-24.787,0.292-49.227,4.616-72.671,12.931C8.109,63.257,0,74.805,0,87.706v233.849
		c0,8.967,4.126,17.174,11.321,22.516c4.933,3.663,10.735,5.559,16.664,5.558c2.736,0,5.5-0.404,8.217-1.225
		c38.803-11.705,79.823-11.704,118.621-0.001c8.606,2.599,17.676,1.021,24.886-4.332c0.453-0.336,0.893-0.684,1.321-1.042
		c0.428,0.358,0.869,0.706,1.321,1.042c4.933,3.663,10.735,5.559,16.665,5.558c2.736,0,5.5-0.404,8.217-1.225
		c38.803-11.705,79.822-11.704,118.621-0.001c8.605,2.6,17.676,1.021,24.885-4.332c7.195-5.342,11.321-13.549,11.321-22.516V87.706
		C362.06,74.805,353.951,63.257,341.876,58.967z M342.06,321.555c0,2.574-1.183,4.928-3.244,6.458
		c-2.076,1.541-4.693,1.995-7.183,1.243c-42.581-12.844-87.595-12.844-130.18,0.001c-2.486,0.75-5.103,0.297-7.179-1.244
		c-2.062-1.531-3.244-3.885-3.244-6.458V153.967v-10.961h-20v10.961v167.588c0,2.574-1.183,4.928-3.244,6.458
		c-2.076,1.542-4.691,1.997-7.183,1.243c-42.58-12.844-87.595-12.844-130.181,0.001c-2.485,0.75-5.102,0.297-7.178-1.244
		c-2.062-1.531-3.244-3.885-3.244-6.458V87.706c0-4.456,2.762-8.43,6.869-9.889c15.217-5.397,30.89-8.956,46.816-10.65
		c-15.978,21.92-25.422,48.891-25.422,78.031h20c0-62.18,50.587-112.767,112.767-112.767s112.767,50.587,112.767,112.767h20
		c0-29.146-9.448-56.122-25.431-78.044c15.927,1.694,31.605,5.264,46.82,10.661c4.112,1.461,6.874,5.436,6.874,9.891V321.555z"/>
	<path id="XMLID_481_" d="M181.03,78.199c-36.943,0-66.999,30.056-66.999,66.999h20c0-25.916,21.083-46.999,46.999-46.999
		s46.999,21.083,46.999,46.999h20C248.029,108.254,217.973,78.199,181.03,78.199z"/>
	<path id="XMLID_482_" d="M303.714,176.024h-19.529l-6.035-18.573c-0.76-2.338-2.922-3.909-5.38-3.909s-4.62,1.571-5.38,3.909
		l-6.035,18.573h-19.529c-2.458,0-4.62,1.571-5.38,3.908c-0.76,2.338,0.065,4.879,2.055,6.326l15.799,11.479l-6.036,18.576
		c-0.557,1.717-0.257,3.612,0.801,5.067c1.064,1.464,2.778,2.338,4.583,2.338c1.198,0,2.346-0.375,3.322-1.083l15.799-11.479
		l15.8,11.479c0.976,0.708,2.124,1.083,3.322,1.083c1.805,0,3.519-0.874,4.583-2.338c1.058-1.456,1.357-3.35,0.8-5.07l-6.035-18.573
		l15.8-11.479c1.988-1.446,2.813-3.987,2.054-6.325C308.334,177.595,306.172,176.024,303.714,176.024z"/>
	<path id="XMLID_483_" d="M120.371,248.33h-19.528l-6.035-18.573c-0.76-2.338-2.922-3.909-5.38-3.909
		c-2.458,0-4.621,1.571-5.38,3.909l-6.035,18.573H58.484c-2.458,0-4.62,1.57-5.38,3.908c-0.76,2.337,0.065,4.879,2.055,6.326
		l15.799,11.479l-6.035,18.573c-0.558,1.718-0.26,3.612,0.799,5.069c1.064,1.465,2.778,2.34,4.585,2.34
		c1.197,0,2.346-0.375,3.322-1.083l15.799-11.479l15.8,11.479c0.975,0.708,2.124,1.083,3.322,1.083c1.806,0,3.52-0.875,4.584-2.34
		c1.058-1.457,1.356-3.351,0.798-5.068l-6.035-18.573l15.802-11.48c1.987-1.446,2.812-3.988,2.051-6.325
		S122.829,248.33,120.371,248.33z"/>
</g>
<g>
</g>
<g>
</g>
<g>
</g>
<g>
</g>
<g>
</g>
<g>
</g>
<g>
</g>
<g>
</g>
<g>
</g>
<g>
</g>
<g>
</g>
<g>
</g>
<g>
</g>
<g>
</g>
<g>
</g>
</svg>
